<svg width="124" height="27" viewBox="0 0 124 27" fill="none" xmlns="http://www.w3.org/2000/svg">
<path d="M1.30518 13C1.30518 6.64873 6.4539 1.5 12.8052 1.5H111.436C117.787 1.5 122.936 6.64873 122.936 13C122.936 19.3513 117.787 24.5 111.436 24.5H12.8052C6.45391 24.5 1.30518 19.3513 1.30518 13Z" fill="url(#paint0_linear_619_439)" stroke="#EFEFEF"/>
<g filter="url(#filter0_d_619_439)">
<path d="M108.145 16.8554C108.273 17.2266 108.242 17.6217 108.071 17.9654C107.948 18.2162 107.772 18.4104 107.557 18.5839C107.297 18.7901 106.973 18.9653 106.584 19.1337C106.118 19.333 105.551 19.5203 105.291 19.589C104.625 19.7625 103.986 19.8725 103.338 19.8777C102.411 19.8863 101.612 19.6663 101.045 19.1045C100.75 19.1406 100.453 19.1612 100.154 19.1612C99.8697 19.1612 99.5893 19.144 99.3105 19.1096C98.7411 19.668 97.9459 19.8863 97.0225 19.8777C96.3743 19.8725 95.7348 19.7625 95.0678 19.589C94.8096 19.5203 94.2419 19.333 93.7767 19.1337C93.3868 18.9653 93.0636 18.7901 92.8054 18.5839C92.5882 18.4104 92.4121 18.2162 92.289 17.9654C92.1197 17.6217 92.0872 17.2266 92.2171 16.8554C92.0974 16.5719 92.0667 16.2472 92.1607 15.8881C92.2035 15.7249 92.2736 15.5737 92.3625 15.4397C92.3437 15.3692 92.3283 15.2971 92.318 15.218C92.2531 14.7473 92.4155 14.3177 92.7216 13.9844C92.8721 13.8177 93.0346 13.7026 93.2039 13.6287C93.079 13.0961 93.014 12.548 93.014 11.9879C93.014 8.02583 96.2102 4.8146 100.154 4.8146C101.508 4.8146 102.775 5.19259 103.856 5.85236C104.051 5.97263 104.242 6.1015 104.425 6.23895C104.516 6.30767 104.607 6.37812 104.694 6.452C104.783 6.52416 104.87 6.59976 104.954 6.67708C105.207 6.90903 105.445 7.15816 105.662 7.42448C105.735 7.5121 105.805 7.60316 105.874 7.69594C106.012 7.87979 106.141 8.0705 106.259 8.26809C106.438 8.56361 106.595 8.87288 106.732 9.19418C106.823 9.40894 106.902 9.62887 106.972 9.85395C107.076 10.1907 107.156 10.5378 107.211 10.8951C107.228 11.0137 107.244 11.134 107.256 11.2542C107.28 11.4948 107.293 11.7388 107.293 11.9879C107.293 12.5411 107.228 13.0841 107.107 13.6081C107.295 13.682 107.473 13.8023 107.639 13.9844C107.945 14.3177 108.107 14.749 108.042 15.2197C108.032 15.2971 108.017 15.3692 107.998 15.4397C108.087 15.5737 108.157 15.7249 108.2 15.8881C108.294 16.2472 108.263 16.5719 108.145 16.8554Z" fill="white"/>
<path d="M100.1 17.9585C103.382 17.9585 106.043 15.2854 106.043 11.9879C106.043 8.69044 103.382 6.01732 100.1 6.01732C96.8183 6.01732 94.1577 8.69044 94.1577 11.9879C94.1577 15.2854 96.8183 17.9585 100.1 17.9585Z" fill="#FFD21E"/>
<path d="M106.043 11.9879C106.043 8.69046 103.382 6.01734 100.1 6.01734C96.8182 6.01734 94.1577 8.69046 94.1577 11.9879C94.1577 15.2854 96.8182 17.9585 100.1 17.9585C103.382 17.9585 106.043 15.2854 106.043 11.9879ZM93.4736 11.9879C93.4736 8.3109 96.4404 5.33007 100.1 5.33007C103.76 5.33007 106.727 8.3109 106.727 11.9879C106.727 15.665 103.76 18.6458 100.1 18.6458C96.4404 18.6458 93.4736 15.665 93.4736 11.9879Z" fill="#FF9D00"/>
<path d="M102.031 10.3628C102.249 10.4401 102.336 10.8902 102.556 10.7726C102.973 10.5499 103.131 10.0297 102.909 9.61078C102.688 9.19186 102.17 9.03283 101.753 9.25557C101.336 9.47832 101.178 9.99849 101.399 10.4174C101.504 10.6151 101.836 10.2936 102.031 10.3628Z" fill="#32343D"/>
<path d="M98.0022 10.3628C97.7842 10.4401 97.6975 10.8902 97.4774 10.7726C97.0604 10.5499 96.9021 10.0297 97.1238 9.61078C97.3455 9.19186 97.8633 9.03283 98.2802 9.25557C98.6972 9.47832 98.8554 9.99849 98.6337 10.4174C98.5291 10.6151 98.197 10.2936 98.0022 10.3628Z" fill="#32343D"/>
<path d="M100.058 14.4859C101.738 14.4859 102.281 12.9803 102.281 12.2072C102.281 11.8053 102.012 11.9318 101.581 12.146C101.183 12.3439 100.647 12.6168 100.058 12.6168C98.8298 12.6168 97.8345 11.434 97.8345 12.2072C97.8345 12.9803 98.3768 14.4859 100.058 14.4859Z" fill="#32343D"/>
<mask id="mask0_619_439" style="mask-type:alpha" maskUnits="userSpaceOnUse" x="97" y="11" width="6" height="4">
<path d="M100.058 14.4859C101.738 14.4859 102.281 12.9803 102.281 12.2072C102.281 11.8053 102.012 11.9318 101.581 12.146C101.183 12.3439 100.647 12.6168 100.058 12.6168C98.8298 12.6168 97.8345 11.434 97.8345 12.2072C97.8345 12.9803 98.3768 14.4859 100.058 14.4859Z" fill="white"/>
</mask>
<g mask="url(#mask0_619_439)">
<path d="M100.1 16.2403C100.919 16.2403 101.583 15.5731 101.583 14.7502C101.583 14.1091 101.18 13.5627 100.615 13.3523C100.594 13.3446 100.573 13.3373 100.552 13.3305C100.409 13.2847 100.257 13.7769 100.1 13.7769C99.9525 13.7769 99.8103 13.2816 99.676 13.3218C99.0634 13.505 98.6167 14.0752 98.6167 14.7502C98.6167 15.5731 99.2807 16.2403 100.1 16.2403Z" fill="#FF323D"/>
</g>
<g style="mix-blend-mode:multiply">
<path d="M104.119 11.1718C104.426 11.1718 104.675 10.9218 104.675 10.6134C104.675 10.305 104.426 10.055 104.119 10.055C103.812 10.055 103.563 10.305 103.563 10.6134C103.563 10.9218 103.812 11.1718 104.119 11.1718Z" fill="#FFD21E"/>
</g>
<g style="mix-blend-mode:multiply">
<path d="M96.1666 11.1718C96.4736 11.1718 96.7224 10.9218 96.7224 10.6134C96.7224 10.305 96.4736 10.055 96.1666 10.055C95.8597 10.055 95.6108 10.305 95.6108 10.6134C95.6108 10.9218 95.8597 11.1718 96.1666 11.1718Z" fill="#FFD21E"/>
</g>
<path d="M95.0229 13.0618C94.746 13.0618 94.4986 13.176 94.326 13.3832C94.2193 13.5116 94.1078 13.7185 94.0987 14.0282C93.9826 13.9947 93.871 13.976 93.7666 13.976C93.5016 13.976 93.2622 14.0781 93.0929 14.2634C92.8754 14.5014 92.7787 14.7938 92.8208 15.0864C92.8408 15.2258 92.8871 15.3507 92.9564 15.4663C92.8104 15.5851 92.7028 15.7503 92.6508 15.9491C92.6101 16.105 92.5684 16.4295 92.7863 16.7639C92.7724 16.7857 92.7594 16.8084 92.7473 16.8316C92.6163 17.0814 92.6079 17.3637 92.7235 17.6266C92.8988 18.025 93.3343 18.3389 94.1801 18.6758C94.7063 18.8855 95.1877 19.0195 95.192 19.0207C95.8877 19.2019 96.5168 19.294 97.0614 19.294C98.0625 19.294 98.7792 18.986 99.1917 18.3784C99.8555 17.4001 99.7606 16.5053 98.9017 15.6428C98.4263 15.1655 98.1102 14.4617 98.0444 14.3073C97.9117 13.8499 97.5608 13.3415 96.9775 13.3415H96.9773C96.9282 13.3415 96.8786 13.3454 96.8297 13.3532C96.5742 13.3935 96.3509 13.5413 96.1914 13.7636C96.0192 13.5485 95.8519 13.3774 95.7006 13.2808C95.4724 13.1355 95.2445 13.0618 95.0229 13.0618ZM95.0229 13.749C95.1101 13.749 95.2166 13.7863 95.3341 13.8612C95.6989 14.0937 96.4027 15.3093 96.6604 15.7821C96.7468 15.9405 96.8944 16.0075 97.0272 16.0075C97.2909 16.0075 97.4968 15.7442 97.0514 15.4095C96.3815 14.9059 96.6165 14.0827 96.9363 14.032C96.9503 14.0298 96.9641 14.0287 96.9775 14.0287C97.2682 14.0287 97.3965 14.5322 97.3965 14.5322C97.3965 14.5322 97.7723 15.4806 98.4181 16.1288C99.0638 16.7773 99.0971 17.2977 98.6265 17.9912C98.3055 18.464 97.6911 18.6068 97.0614 18.6068C96.4084 18.6068 95.7389 18.4532 95.3637 18.3554C95.3452 18.3506 93.0635 17.703 93.3525 17.1518C93.401 17.0592 93.4811 17.0221 93.5818 17.0221C93.9888 17.0221 94.7291 17.6307 95.0473 17.6307C95.1185 17.6307 95.1686 17.6003 95.1891 17.5261C95.3247 17.0372 93.1272 16.8317 93.3124 16.1237C93.3451 15.9984 93.4337 15.9476 93.5582 15.9478C94.096 15.9478 95.3026 16.8981 95.5556 16.8981C95.5749 16.8981 95.5887 16.8924 95.5963 16.8804C95.723 16.6749 95.6535 16.5314 94.7604 15.9883C93.8672 15.445 93.2403 15.1182 93.5968 14.7282C93.6379 14.6832 93.696 14.6633 93.7666 14.6633C94.3089 14.6634 95.5901 15.8349 95.5901 15.8349C95.5901 15.8349 95.9359 16.1962 96.145 16.1962C96.1931 16.1962 96.2339 16.1771 96.2616 16.1301C96.4099 15.8789 94.8845 14.7174 94.7985 14.2382C94.7402 13.9135 94.8394 13.749 95.0229 13.749Z" fill="#FF9D00"/>
<path d="M98.6264 17.9911C99.097 17.2977 99.0637 16.7773 98.418 16.1288C97.7722 15.4806 97.3963 14.5322 97.3963 14.5322C97.3963 14.5322 97.256 13.9813 96.9362 14.032C96.6164 14.0827 96.3816 14.9059 97.0514 15.4094C97.7213 15.9129 96.918 16.2549 96.6603 15.7821C96.4026 15.3093 95.6989 14.0937 95.334 13.8612C94.9692 13.6287 94.7124 13.759 94.7984 14.2382C94.8844 14.7174 96.41 15.8788 96.2615 16.1302C96.1131 16.3814 95.59 15.8349 95.59 15.8349C95.59 15.8349 93.9531 14.3382 93.5967 14.7282C93.2403 15.1182 93.8671 15.445 94.7603 15.9883C95.6536 16.5314 95.7229 16.6749 95.5962 16.8804C95.4693 17.0858 93.4975 15.4156 93.3123 16.1237C93.1273 16.8317 95.3246 17.0372 95.189 17.526C95.0534 18.015 93.6412 16.6008 93.3524 17.1518C93.0634 17.703 95.3451 18.3506 95.3636 18.3554C96.1006 18.5475 97.9725 18.9545 98.6264 17.9911Z" fill="#FFD21E"/>
<path d="M105.263 13.0618C105.54 13.0618 105.787 13.176 105.96 13.3832C106.066 13.5116 106.178 13.7185 106.187 14.0282C106.303 13.9947 106.415 13.976 106.519 13.976C106.784 13.976 107.023 14.0781 107.193 14.2634C107.41 14.5014 107.507 14.7938 107.465 15.0864C107.445 15.2258 107.398 15.3507 107.329 15.4663C107.475 15.5851 107.583 15.7503 107.635 15.9491C107.676 16.105 107.717 16.4295 107.499 16.7639C107.513 16.7857 107.526 16.8084 107.538 16.8316C107.669 17.0814 107.678 17.3637 107.562 17.6266C107.387 18.025 106.951 18.3389 106.106 18.6758C105.579 18.8855 105.098 19.0195 105.094 19.0207C104.398 19.2019 103.769 19.294 103.224 19.294C102.223 19.294 101.506 18.986 101.094 18.3784C100.43 17.4001 100.525 16.5053 101.384 15.6428C101.859 15.1655 102.175 14.4617 102.241 14.3073C102.374 13.8499 102.725 13.3415 103.308 13.3415H103.308C103.357 13.3415 103.407 13.3454 103.456 13.3532C103.711 13.3935 103.935 13.5413 104.094 13.7636C104.266 13.5485 104.434 13.3774 104.585 13.2808C104.813 13.1355 105.041 13.0618 105.263 13.0618ZM105.263 13.749C105.176 13.749 105.069 13.7863 104.952 13.8612C104.587 14.0937 103.883 15.3093 103.625 15.7821C103.539 15.9405 103.391 16.0075 103.258 16.0075C102.995 16.0075 102.789 15.7442 103.234 15.4095C103.904 14.9059 103.669 14.0827 103.349 14.032C103.335 14.0298 103.321 14.0287 103.308 14.0287C103.017 14.0287 102.889 14.5322 102.889 14.5322C102.889 14.5322 102.513 15.4806 101.868 16.1288C101.222 16.7773 101.189 17.2977 101.659 17.9912C101.98 18.464 102.595 18.6068 103.224 18.6068C103.877 18.6068 104.547 18.4532 104.922 18.3554C104.94 18.3506 107.222 17.703 106.933 17.1518C106.885 17.0592 106.805 17.0221 106.704 17.0221C106.297 17.0221 105.557 17.6307 105.238 17.6307C105.167 17.6307 105.117 17.6003 105.097 17.5261C104.961 17.0372 107.158 16.8317 106.973 16.1237C106.941 15.9984 106.852 15.9476 106.727 15.9478C106.19 15.9478 104.983 16.8981 104.73 16.8981C104.711 16.8981 104.697 16.8924 104.689 16.8804C104.563 16.6749 104.632 16.5314 105.525 15.9883C106.418 15.445 107.045 15.1182 106.689 14.7282C106.648 14.6832 106.59 14.6633 106.519 14.6633C105.977 14.6634 104.696 15.8349 104.696 15.8349C104.696 15.8349 104.35 16.1962 104.141 16.1962C104.093 16.1962 104.052 16.1771 104.024 16.1301C103.876 15.8789 105.401 14.7174 105.487 14.2382C105.545 13.9135 105.446 13.749 105.263 13.749Z" fill="#FF9D00"/>
<path d="M101.659 17.9911C101.188 17.2977 101.221 16.7773 101.867 16.1288C102.513 15.4806 102.889 14.5322 102.889 14.5322C102.889 14.5322 103.029 13.9813 103.349 14.032C103.669 14.0827 103.904 14.9059 103.234 15.4094C102.564 15.9129 103.367 16.2549 103.625 15.7821C103.883 15.3093 104.586 14.0937 104.951 13.8612C105.316 13.6287 105.573 13.759 105.487 14.2382C105.401 14.7174 103.875 15.8788 104.024 16.1302C104.172 16.3814 104.695 15.8349 104.695 15.8349C104.695 15.8349 106.332 14.3382 106.688 14.7282C107.045 15.1182 106.418 15.445 105.525 15.9883C104.632 16.5314 104.562 16.6749 104.689 16.8804C104.816 17.0858 106.788 15.4156 106.973 16.1237C107.158 16.8317 104.961 17.0372 105.096 17.526C105.232 18.015 106.644 16.6008 106.933 17.1518C107.222 17.703 104.94 18.3506 104.922 18.3554C104.185 18.5475 102.313 18.9545 101.659 17.9911Z" fill="#FFD21E"/>
</g>
<path d="M18.2358 17.5674V7.26846H20.9916C22.5664 7.26846 23.7947 7.69365 24.6765 8.54402C25.5584 9.39439 25.9993 10.6699 25.9993 12.3707C25.9993 14.0819 25.5637 15.3785 24.6923 16.2604C23.8209 17.1317 22.6189 17.5674 21.0861 17.5674H18.2358ZM20.0625 16.0871H20.8656C21.905 16.0871 22.7081 15.7879 23.275 15.1895C23.8419 14.5806 24.1254 13.641 24.1254 12.3707C24.1254 11.1109 23.8419 10.1923 23.275 9.61486C22.7081 9.03744 21.905 8.74874 20.8656 8.74874H20.0625V16.0871ZM29.7945 17.7564C29.1226 17.7564 28.5715 17.5464 28.141 17.1265C27.7211 16.7065 27.5111 16.1606 27.5111 15.4887C27.5111 14.6593 27.8733 14.0189 28.5977 13.5675C29.3221 13.1056 30.4769 12.7906 32.0622 12.6227C32.0517 12.2132 31.9415 11.8615 31.7315 11.5676C31.532 11.2631 31.1698 11.1109 30.6449 11.1109C30.267 11.1109 29.8943 11.1844 29.5268 11.3313C29.1699 11.4783 28.8182 11.6568 28.4717 11.8668L27.8103 10.6542C28.2408 10.3812 28.7237 10.145 29.2591 9.94556C29.805 9.74609 30.3824 9.64635 30.9913 9.64635C31.9572 9.64635 32.6763 9.93506 33.1488 10.5125C33.6317 11.0794 33.8732 11.9035 33.8732 12.9849V17.5674H32.3771L32.2512 16.717H32.1882C31.8417 17.011 31.469 17.2577 31.0701 17.4572C30.6816 17.6566 30.2565 17.7564 29.7945 17.7564ZM30.3772 16.3391C30.6921 16.3391 30.9756 16.2656 31.2276 16.1186C31.49 15.9612 31.7682 15.7512 32.0622 15.4887V13.7565C31.0123 13.893 30.2827 14.0977 29.8733 14.3706C29.4638 14.6331 29.2591 14.9586 29.2591 15.347C29.2591 15.6934 29.3641 15.9454 29.5741 16.1029C29.784 16.2604 30.0517 16.3391 30.3772 16.3391ZM38.5187 17.7564C37.6264 17.7564 36.9912 17.4992 36.6133 16.9848C36.2458 16.4598 36.0621 15.7827 36.0621 14.9533V11.2684H34.9598V9.91406L36.1566 9.83532L36.377 7.72514H37.8888V9.83532H39.8573V11.2684H37.8888V14.9533C37.8888 15.8562 38.251 16.3076 38.9754 16.3076C39.1119 16.3076 39.2536 16.2919 39.4006 16.2604C39.5476 16.2184 39.6735 16.1764 39.7785 16.1344L40.0935 17.4729C39.8835 17.5464 39.642 17.6094 39.3691 17.6619C39.1066 17.7249 38.8232 17.7564 38.5187 17.7564ZM43.0201 17.7564C42.3482 17.7564 41.797 17.5464 41.3666 17.1265C40.9466 16.7065 40.7367 16.1606 40.7367 15.4887C40.7367 14.6593 41.0989 14.0189 41.8233 13.5675C42.5477 13.1056 43.7025 12.7906 45.2877 12.6227C45.2772 12.2132 45.167 11.8615 44.957 11.5676C44.7576 11.2631 44.3954 11.1109 43.8705 11.1109C43.4925 11.1109 43.1198 11.1844 42.7524 11.3313C42.3954 11.4783 42.0437 11.6568 41.6973 11.8668L41.0359 10.6542C41.4663 10.3812 41.9492 10.145 42.4847 9.94556C43.0306 9.74609 43.608 9.64635 44.2169 9.64635C45.1828 9.64635 45.9019 9.93506 46.3743 10.5125C46.8573 11.0794 47.0987 11.9035 47.0987 12.9849V17.5674H45.6027L45.4767 16.717H45.4137C45.0673 17.011 44.6946 17.2577 44.2956 17.4572C43.9072 17.6566 43.482 17.7564 43.0201 17.7564ZM43.6027 16.3391C43.9177 16.3391 44.2012 16.2656 44.4531 16.1186C44.7156 15.9612 44.9938 15.7512 45.2877 15.4887V13.7565C44.2379 13.893 43.5083 14.0977 43.0988 14.3706C42.6894 14.6331 42.4847 14.9586 42.4847 15.347C42.4847 15.6934 42.5896 15.9454 42.7996 16.1029C43.0096 16.2604 43.2773 16.3391 43.6027 16.3391ZM51.4234 17.7564C50.8985 17.7564 50.3736 17.6566 49.8486 17.4572C49.3237 17.2472 48.8723 16.99 48.4944 16.6855L49.3447 15.5202C49.6912 15.7827 50.0376 15.9926 50.3841 16.1501C50.7305 16.3076 51.098 16.3863 51.4864 16.3863C51.9063 16.3863 52.216 16.2971 52.4155 16.1186C52.615 15.9402 52.7147 15.7197 52.7147 15.4572C52.7147 15.2368 52.6307 15.0583 52.4628 14.9218C52.3053 14.7748 52.1006 14.6489 51.8486 14.5439C51.5966 14.4284 51.3342 14.3182 51.0612 14.2132C50.7253 14.0872 50.3893 13.935 50.0534 13.7565C49.7279 13.5675 49.4602 13.3313 49.2502 13.0478C49.0403 12.7539 48.9353 12.3917 48.9353 11.9613C48.9353 11.2789 49.1872 10.7224 49.6912 10.292C50.1951 9.86157 50.8775 9.64635 51.7384 9.64635C52.2843 9.64635 52.7725 9.74084 53.2029 9.92981C53.6333 10.1188 54.006 10.334 54.321 10.5755L53.4864 11.6778C53.2134 11.4783 52.9352 11.3209 52.6517 11.2054C52.3788 11.0794 52.0901 11.0164 51.7856 11.0164C51.3972 11.0164 51.1085 11.1004 50.9195 11.2684C50.7305 11.4258 50.636 11.6253 50.636 11.8668C50.636 12.1712 50.7935 12.4022 51.1085 12.5597C51.4234 12.7171 51.7909 12.8694 52.2108 13.0163C52.5677 13.1423 52.9142 13.2998 53.2501 13.4888C53.5861 13.6672 53.8643 13.9035 54.0848 14.1974C54.3157 14.4914 54.4312 14.8798 54.4312 15.3627C54.4312 16.0241 54.174 16.5911 53.6596 17.0635C53.1452 17.5254 52.3998 17.7564 51.4234 17.7564ZM59.3549 17.7564C58.641 17.7564 57.9954 17.5989 57.418 17.284C56.8406 16.9585 56.3839 16.4966 56.0479 15.8982C55.712 15.2893 55.544 14.5596 55.544 13.7092C55.544 12.8694 55.712 12.145 56.0479 11.5361C56.3944 10.9272 56.8406 10.46 57.3865 10.1345C57.9324 9.80908 58.5046 9.64635 59.103 9.64635C59.8064 9.64635 60.3943 9.80383 60.8667 10.1188C61.3391 10.4232 61.6961 10.8537 61.9375 11.4101C62.179 11.956 62.2997 12.5912 62.2997 13.3156C62.2997 13.6935 62.2735 13.9875 62.221 14.1974H57.3077C57.3917 14.8798 57.6384 15.41 58.0479 15.7879C58.4573 16.1659 58.9717 16.3548 59.5911 16.3548C59.9271 16.3548 60.2368 16.3076 60.5203 16.2131C60.8142 16.1081 61.1029 15.9664 61.3864 15.7879L62.0005 16.9218C61.6331 17.1632 61.2237 17.3627 60.7722 17.5202C60.3208 17.6776 59.8484 17.7564 59.3549 17.7564ZM57.292 12.9691H60.725C60.725 12.3707 60.5937 11.9035 60.3313 11.5676C60.0688 11.2211 59.6751 11.0479 59.1502 11.0479C58.6988 11.0479 58.2946 11.2159 57.9376 11.5518C57.5912 11.8773 57.376 12.3497 57.292 12.9691ZM66.6 17.7564C65.7076 17.7564 65.0724 17.4992 64.6945 16.9848C64.327 16.4598 64.1433 15.7827 64.1433 14.9533V11.2684H63.041V9.91406L64.2378 9.83532L64.4583 7.72514H65.97V9.83532H67.9385V11.2684H65.97V14.9533C65.97 15.8562 66.3322 16.3076 67.0566 16.3076C67.1931 16.3076 67.3348 16.2919 67.4818 16.2604C67.6288 16.2184 67.7548 16.1764 67.8598 16.1344L68.1747 17.4729C67.9647 17.5464 67.7233 17.6094 67.4503 17.6619C67.1879 17.7249 66.9044 17.7564 66.6 17.7564ZM75.8363 17.7564C73.9623 17.7564 72.2931 16.2919 72.2931 13.7565C72.2931 11.1896 73.9623 9.72509 75.8363 9.72509C77.7103 9.72509 79.3795 11.1896 79.3795 13.7565C79.3795 16.2919 77.7103 17.7564 75.8363 17.7564ZM75.8363 16.6855C77.1591 16.6855 78.041 15.5045 78.041 13.7565C78.041 11.9928 77.1591 10.7959 75.8363 10.7959C74.5293 10.7959 73.6316 11.9928 73.6316 13.7565C73.6316 15.5045 74.5293 16.6855 75.8363 16.6855ZM81.3951 17.5674V9.91406H82.4659L82.5762 11.0164H82.6234C83.3478 10.292 84.1352 9.72509 85.1903 9.72509C86.7965 9.72509 87.5209 10.7644 87.5209 12.7171V17.5674H86.2296V12.8904C86.2296 11.4573 85.7887 10.8432 84.7808 10.8432C83.9935 10.8432 83.458 11.2526 82.6864 12.0242V17.5674H81.3951Z" fill="#2C3236"/>
<defs>
<filter id="filter0_d_619_439" x="86.6815" y="0.642281" width="26.9974" height="25.9113" filterUnits="userSpaceOnUse" color-interpolation-filters="sRGB">
<feFlood flood-opacity="0" result="BackgroundImageFix"/>
<feColorMatrix in="SourceAlpha" type="matrix" values="0 0 0 0 0 0 0 0 0 0 0 0 0 0 0 0 0 0 127 0" result="hardAlpha"/>
<feOffset dy="1.2517"/>
<feGaussianBlur stdDeviation="2.71201"/>
<feColorMatrix type="matrix" values="0 0 0 0 0 0 0 0 0 0 0 0 0 0 0 0 0 0 0.1 0"/>
<feBlend mode="normal" in2="BackgroundImageFix" result="effect1_dropShadow_619_439"/>
<feBlend mode="normal" in="SourceGraphic" in2="effect1_dropShadow_619_439" result="shape"/>
</filter>
<linearGradient id="paint0_linear_619_439" x1="0.805176" y1="13" x2="63.7797" y2="13" gradientUnits="userSpaceOnUse">
<stop stop-color="#F5F9FA"/>
<stop offset="1" stop-color="white"/>
</linearGradient>
</defs>
</svg>
