<svg width="148" height="42" viewBox="0 0 148 42" fill="none" xmlns="http://www.w3.org/2000/svg">
<path d="M18.8052 2.5H129.72C139.385 2.5 147.22 10.335 147.22 20C147.22 29.665 139.385 37.5 129.72 37.5H18.8052C9.14019 37.5 1.30518 29.665 1.30518 20C1.30518 10.335 9.14019 2.5 18.8052 2.5Z" fill="url(#paint0_linear_619_440)" stroke="#EFEFEF"/>
<path d="M21.1197 26.0721V14.4751H24.2229C25.9962 14.4751 27.3793 14.9539 28.3723 15.9114C29.3654 16.869 29.8619 18.3053 29.8619 20.2204C29.8619 22.1474 29.3713 23.6073 28.3901 24.6003C27.4089 25.5815 26.0553 26.0721 24.3293 26.0721H21.1197ZM23.1767 24.4053H24.0811C25.2514 24.4053 26.1558 24.0684 26.7941 23.3945C27.4325 22.7089 27.7517 21.6508 27.7517 20.2204C27.7517 18.8018 27.4325 17.7674 26.7941 17.1172C26.1558 16.467 25.2514 16.1419 24.0811 16.1419H23.1767V24.4053ZM34.1354 26.2849C33.3788 26.2849 32.7582 26.0485 32.2735 25.5756C31.8006 25.1028 31.5642 24.488 31.5642 23.7315C31.5642 22.7975 31.972 22.0764 32.7877 21.5681C33.6034 21.0479 34.9038 20.6933 36.6889 20.5041C36.6771 20.0431 36.5529 19.6471 36.3165 19.3161C36.0919 18.9732 35.684 18.8018 35.093 18.8018C34.6674 18.8018 34.2477 18.8846 33.8339 19.0501C33.432 19.2156 33.036 19.4165 32.6459 19.653L31.9011 18.2876C32.3858 17.9802 32.9296 17.7142 33.5325 17.4896C34.1472 17.265 34.7974 17.1527 35.4831 17.1527C36.5707 17.1527 37.3804 17.4778 37.9124 18.128C38.4562 18.7664 38.7281 19.6944 38.7281 20.912V26.0721H37.0435L36.9017 25.1146H36.8307C36.4406 25.4456 36.021 25.7234 35.5717 25.948C35.1343 26.1726 34.6555 26.2849 34.1354 26.2849ZM34.7915 24.689C35.1461 24.689 35.4653 24.6063 35.7491 24.4408C36.0446 24.2634 36.3579 24.027 36.6889 23.7315V21.7809C35.5067 21.9346 34.6851 22.1651 34.2241 22.4724C33.763 22.768 33.5325 23.1345 33.5325 23.5719C33.5325 23.962 33.6507 24.2457 33.8871 24.423C34.1236 24.6003 34.425 24.689 34.7915 24.689ZM43.9592 26.2849C42.9544 26.2849 42.2391 25.9953 41.8136 25.416C41.3998 24.825 41.1929 24.0625 41.1929 23.1285V18.9791H39.9517V17.4542L41.2993 17.3655L41.5476 14.9893H43.2499V17.3655H45.4665V18.9791H43.2499V23.1285C43.2499 24.1452 43.6577 24.6535 44.4734 24.6535C44.6271 24.6535 44.7867 24.6358 44.9522 24.6003C45.1177 24.5531 45.2596 24.5058 45.3778 24.4585L45.7324 25.9657C45.496 26.0485 45.2241 26.1194 44.9168 26.1785C44.6212 26.2495 44.302 26.2849 43.9592 26.2849ZM49.0279 26.2849C48.2713 26.2849 47.6507 26.0485 47.166 25.5756C46.6931 25.1028 46.4567 24.488 46.4567 23.7315C46.4567 22.7975 46.8646 22.0764 47.6802 21.5681C48.4959 21.0479 49.7963 20.6933 51.5814 20.5041C51.5696 20.0431 51.4454 19.6471 51.209 19.3161C50.9844 18.9732 50.5766 18.8018 49.9855 18.8018C49.5599 18.8018 49.1402 18.8846 48.7265 19.0501C48.3245 19.2156 47.9285 19.4165 47.5384 19.653L46.7936 18.2876C47.2783 17.9802 47.8221 17.7142 48.425 17.4896C49.0397 17.265 49.6899 17.1527 50.3756 17.1527C51.4632 17.1527 52.273 17.4778 52.8049 18.128C53.3487 18.7664 53.6206 19.6944 53.6206 20.912V26.0721H51.936L51.7942 25.1146H51.7233C51.3331 25.4456 50.9135 25.7234 50.4643 25.948C50.0268 26.1726 49.5481 26.2849 49.0279 26.2849ZM49.684 24.689C50.0387 24.689 50.3579 24.6063 50.6416 24.4408C50.9371 24.2634 51.2504 24.027 51.5814 23.7315V21.7809C50.3992 21.9346 49.5776 22.1651 49.1166 22.4724C48.6555 22.768 48.425 23.1345 48.425 23.5719C48.425 23.962 48.5432 24.2457 48.7797 24.423C49.0161 24.6003 49.3175 24.689 49.684 24.689ZM58.4904 26.2849C57.8993 26.2849 57.3083 26.1726 56.7172 25.948C56.1261 25.7116 55.6178 25.422 55.1922 25.0791L56.1497 23.7669C56.5398 24.0625 56.93 24.2989 57.3201 24.4762C57.7102 24.6535 58.1239 24.7422 58.5613 24.7422C59.0342 24.7422 59.383 24.6417 59.6076 24.4408C59.8322 24.2398 59.9445 23.9915 59.9445 23.696C59.9445 23.4477 59.8499 23.2468 59.6608 23.0931C59.4834 22.9276 59.2529 22.7857 58.9692 22.6675C58.6855 22.5375 58.3899 22.4133 58.0826 22.2951C57.7043 22.1533 57.326 21.9818 56.9477 21.7809C56.5812 21.5681 56.2798 21.3021 56.0433 20.9829C55.8069 20.6519 55.6887 20.2441 55.6887 19.7594C55.6887 18.991 55.9724 18.3644 56.5398 17.8797C57.1073 17.395 57.8757 17.1527 58.8451 17.1527C59.4598 17.1527 60.0095 17.2591 60.4942 17.4719C60.9789 17.6847 61.3985 17.927 61.7532 18.1989L60.8134 19.4402C60.506 19.2156 60.1927 19.0383 59.8736 18.9082C59.5662 18.7664 59.2411 18.6954 58.8983 18.6954C58.4609 18.6954 58.1358 18.79 57.923 18.9791C57.7102 19.1565 57.6038 19.3811 57.6038 19.653C57.6038 19.9958 57.7811 20.2559 58.1358 20.4332C58.4904 20.6105 58.9042 20.7819 59.377 20.9475C59.779 21.0893 60.1691 21.2666 60.5474 21.4794C60.9257 21.6804 61.239 21.9464 61.4872 22.2774C61.7473 22.6084 61.8773 23.0458 61.8773 23.5896C61.8773 24.3344 61.5877 24.9727 61.0084 25.5047C60.4292 26.0249 59.5898 26.2849 58.4904 26.2849ZM67.4216 26.2849C66.6178 26.2849 65.8907 26.1076 65.2405 25.753C64.5904 25.3865 64.0761 24.8663 63.6978 24.1925C63.3195 23.5068 63.1304 22.6852 63.1304 21.7277C63.1304 20.7819 63.3195 19.9663 63.6978 19.2806C64.0879 18.5949 64.5904 18.0689 65.2051 17.7024C65.8198 17.3359 66.4641 17.1527 67.1379 17.1527C67.93 17.1527 68.592 17.33 69.124 17.6847C69.6559 18.0275 70.0579 18.5122 70.3298 19.1387C70.6017 19.7535 70.7376 20.4687 70.7376 21.2844C70.7376 21.71 70.7081 22.041 70.649 22.2774H65.1164C65.211 23.0458 65.4888 23.6428 65.9498 24.0684C66.4109 24.494 66.9901 24.7067 67.6876 24.7067C68.0659 24.7067 68.4147 24.6535 68.7338 24.5471C69.0648 24.4289 69.3899 24.2693 69.7091 24.0684L70.4007 25.3451C69.9869 25.617 69.5259 25.8416 69.0176 26.0189C68.5092 26.1963 67.9773 26.2849 67.4216 26.2849ZM65.0987 20.8943H68.9644C68.9644 20.2204 68.8166 19.6944 68.5211 19.3161C68.2255 18.9259 67.7822 18.7309 67.1911 18.7309C66.6828 18.7309 66.2277 18.92 65.8257 19.2983C65.4356 19.6648 65.1933 20.1968 65.0987 20.8943ZM75.5798 26.2849C74.575 26.2849 73.8598 25.9953 73.4342 25.416C73.0204 24.825 72.8136 24.0625 72.8136 23.1285V18.9791H71.5723V17.4542L72.92 17.3655L73.1682 14.9893H74.8705V17.3655H77.0871V18.9791H74.8705V23.1285C74.8705 24.1452 75.2784 24.6535 76.0941 24.6535C76.2478 24.6535 76.4073 24.6358 76.5729 24.6003C76.7384 24.5531 76.8802 24.5058 76.9984 24.4585L77.3531 25.9657C77.1166 26.0485 76.8448 26.1194 76.5374 26.1785C76.2418 26.2495 75.9227 26.2849 75.5798 26.2849ZM85.9804 26.2849C83.8702 26.2849 81.9905 24.6358 81.9905 21.7809C81.9905 18.8905 83.8702 17.2414 85.9804 17.2414C88.0905 17.2414 89.9702 18.8905 89.9702 21.7809C89.9702 24.6358 88.0905 26.2849 85.9804 26.2849ZM85.9804 25.0791C87.4699 25.0791 88.4629 23.7492 88.4629 21.7809C88.4629 19.7948 87.4699 18.4472 85.9804 18.4472C84.5086 18.4472 83.4978 19.7948 83.4978 21.7809C83.4978 23.7492 84.5086 25.0791 85.9804 25.0791ZM92.2398 26.0721V17.4542H93.4456L93.5697 18.6954H93.6229C94.4386 17.8797 95.3252 17.2414 96.5133 17.2414C98.322 17.2414 99.1377 18.4117 99.1377 20.6105V26.0721H97.6837V20.8056C97.6837 19.1919 97.1872 18.5004 96.0523 18.5004C95.1656 18.5004 94.5627 18.9614 93.6938 19.8303V26.0721H92.2398Z" fill="#2C3236"/>
<g filter="url(#filter0_d_619_440)">
<path d="M129.69 25.7879C129.892 26.3728 129.843 26.9958 129.574 27.5374C129.38 27.9328 129.102 28.2388 128.762 28.5124C128.353 28.8374 127.843 29.1136 127.229 29.379C126.495 29.6932 125.6 29.9884 125.191 30.0967C124.142 30.3703 123.134 30.5436 122.112 30.5517C120.651 30.5653 119.393 30.2186 118.498 29.333C118.034 29.3899 117.565 29.4224 117.093 29.4224C116.646 29.4224 116.204 29.3953 115.764 29.3411C114.867 30.2213 113.613 30.5653 112.158 30.5517C111.136 30.5436 110.128 30.3703 109.077 30.0967C108.67 29.9884 107.775 29.6932 107.042 29.379C106.427 29.1136 105.918 28.8374 105.511 28.5124C105.168 28.2388 104.891 27.9328 104.696 27.5374C104.43 26.9958 104.378 26.3728 104.583 25.7879C104.395 25.341 104.346 24.8291 104.494 24.2631C104.562 24.0058 104.672 23.7675 104.812 23.5562C104.783 23.4452 104.758 23.3315 104.742 23.2069C104.64 22.4648 104.896 21.7877 105.378 21.2623C105.616 20.9996 105.872 20.8182 106.139 20.7017C105.942 19.8622 105.839 18.9982 105.839 18.1153C105.839 11.87 110.877 6.80826 117.093 6.80826C119.228 6.80826 121.226 7.40408 122.929 8.44406C123.236 8.63364 123.538 8.83676 123.827 9.05342C123.97 9.16175 124.112 9.27279 124.25 9.38925C124.39 9.50299 124.528 9.62216 124.66 9.74403C125.059 10.1096 125.433 10.5023 125.776 10.9221C125.892 11.0603 126.002 11.2038 126.11 11.35C126.328 11.6398 126.53 11.9404 126.716 12.2519C126.999 12.7177 127.247 13.2052 127.463 13.7117C127.606 14.0502 127.73 14.3968 127.84 14.7516C128.005 15.2825 128.132 15.8295 128.218 16.3928C128.245 16.5797 128.269 16.7693 128.288 16.9589C128.326 17.338 128.347 17.7226 128.347 18.1153C128.347 18.9874 128.245 19.8432 128.053 20.6692C128.35 20.7857 128.63 20.9753 128.892 21.2623C129.374 21.7877 129.63 22.4675 129.528 23.2096C129.512 23.3315 129.487 23.4452 129.458 23.5562C129.598 23.7675 129.708 24.0058 129.776 24.2631C129.924 24.8291 129.876 25.341 129.69 25.7879Z" fill="white"/>
<path d="M117.009 27.5266C122.182 27.5266 126.376 23.313 126.376 18.1153C126.376 12.9176 122.182 8.70407 117.009 8.70407C111.836 8.70407 107.642 12.9176 107.642 18.1153C107.642 23.313 111.836 27.5266 117.009 27.5266Z" fill="#FFD21E"/>
<path d="M126.377 18.1154C126.377 12.9177 122.183 8.70409 117.01 8.70409C111.836 8.70409 107.643 12.9177 107.643 18.1154C107.643 23.313 111.836 27.5266 117.01 27.5266C122.183 27.5266 126.377 23.313 126.377 18.1154ZM106.564 18.1154C106.564 12.3194 111.241 7.62078 117.01 7.62078C122.778 7.62078 127.455 12.3194 127.455 18.1154C127.455 23.9113 122.778 28.6099 117.01 28.6099C111.241 28.6099 106.564 23.9113 106.564 18.1154Z" fill="#FF9D00"/>
<path d="M120.053 15.5537C120.396 15.6755 120.533 16.3851 120.88 16.1997C121.537 15.8486 121.787 15.0287 121.437 14.3683C121.088 13.708 120.272 13.4573 119.614 13.8084C118.957 14.1595 118.708 14.9795 119.057 15.6398C119.222 15.9515 119.746 15.4447 120.053 15.5537Z" fill="#32343D"/>
<path d="M113.702 15.5537C113.358 15.6755 113.222 16.3851 112.875 16.1997C112.217 15.8486 111.968 15.0287 112.317 14.3683C112.667 13.708 113.483 13.4573 114.14 13.8084C114.797 14.1595 115.047 14.9795 114.697 15.6398C114.532 15.9515 114.009 15.4447 113.702 15.5537Z" fill="#32343D"/>
<path d="M116.942 22.0529C119.591 22.0529 120.446 19.6796 120.446 18.4609C120.446 17.8276 120.022 18.0269 119.343 18.3645C118.716 18.6765 117.871 19.1066 116.942 19.1066C115.006 19.1066 113.438 17.2422 113.438 18.4609C113.438 19.6796 114.292 22.0529 116.942 22.0529Z" fill="#32343D"/>
<mask id="mask0_619_440" style="mask-type:alpha" maskUnits="userSpaceOnUse" x="113" y="18" width="8" height="5">
<path d="M116.942 22.0529C119.591 22.0529 120.446 19.6796 120.446 18.4609C120.446 17.8276 120.022 18.0269 119.343 18.3645C118.716 18.6765 117.871 19.1066 116.942 19.1066C115.006 19.1066 113.438 17.2422 113.438 18.4609C113.438 19.6796 114.292 22.0529 116.942 22.0529Z" fill="white"/>
</mask>
<g mask="url(#mask0_619_440)">
<path d="M117.009 24.8182C118.3 24.8182 119.347 23.7666 119.347 22.4694C119.347 21.459 118.712 20.5976 117.821 20.266C117.788 20.2538 117.755 20.2423 117.722 20.2316C117.497 20.1594 117.258 20.9352 117.009 20.9352C116.777 20.9352 116.553 20.1545 116.341 20.2178C115.375 20.5066 114.671 21.4054 114.671 22.4694C114.671 23.7666 115.718 24.8182 117.009 24.8182Z" fill="#FF323D"/>
</g>
<g style="mix-blend-mode:multiply">
<path d="M123.343 16.8289C123.827 16.8289 124.219 16.4348 124.219 15.9487C124.219 15.4626 123.827 15.0685 123.343 15.0685C122.86 15.0685 122.467 15.4626 122.467 15.9487C122.467 16.4348 122.86 16.8289 123.343 16.8289Z" fill="#FFD21E"/>
</g>
<g style="mix-blend-mode:multiply">
<path d="M110.809 16.8289C111.292 16.8289 111.685 16.4348 111.685 15.9487C111.685 15.4626 111.292 15.0685 110.809 15.0685C110.325 15.0685 109.933 15.4626 109.933 15.9487C109.933 16.4348 110.325 16.8289 110.809 16.8289Z" fill="#FFD21E"/>
</g>
<path d="M109.006 19.808C108.57 19.808 108.18 19.9881 107.908 20.3147C107.74 20.5171 107.564 20.8431 107.55 21.3314C107.367 21.2786 107.191 21.2491 107.026 21.2491C106.608 21.2491 106.231 21.41 105.964 21.7022C105.621 22.0773 105.469 22.5382 105.535 22.9995C105.567 23.2191 105.64 23.416 105.749 23.5983C105.519 23.7854 105.349 24.0459 105.267 24.3593C105.203 24.6049 105.137 25.1165 105.481 25.6436C105.459 25.6779 105.438 25.7137 105.419 25.7503C105.213 26.144 105.2 26.589 105.382 27.0034C105.658 27.6314 106.345 28.1262 107.678 28.6573C108.507 28.9877 109.266 29.199 109.273 29.2009C110.369 29.4866 111.361 29.6318 112.22 29.6318C113.798 29.6318 114.927 29.1462 115.577 28.1885C116.624 26.6464 116.474 25.236 115.12 23.8764C114.371 23.124 113.873 22.0147 113.769 21.7713C113.56 21.0503 113.007 20.2489 112.087 20.2489H112.087C112.01 20.2489 111.931 20.2552 111.854 20.2674C111.452 20.331 111.1 20.5639 110.848 20.9144C110.577 20.5753 110.313 20.3055 110.075 20.1533C109.715 19.9242 109.356 19.808 109.006 19.808ZM109.006 20.8913C109.144 20.8913 109.312 20.9501 109.497 21.0682C110.072 21.4346 111.181 23.3507 111.588 24.096C111.724 24.3457 111.956 24.4514 112.166 24.4514C112.581 24.4514 112.906 24.0362 112.204 23.5086C111.148 22.7148 111.518 21.4173 112.022 21.3374C112.044 21.3339 112.066 21.3322 112.087 21.3322C112.546 21.3322 112.748 22.1258 112.748 22.1258C112.748 22.1258 113.34 23.6207 114.358 24.6426C115.376 25.6647 115.428 26.485 114.687 27.5781C114.181 28.3234 113.212 28.5484 112.22 28.5484C111.19 28.5484 110.135 28.3063 109.544 28.1522C109.514 28.1446 105.918 27.1239 106.373 26.2551C106.45 26.1091 106.576 26.0506 106.735 26.0506C107.376 26.0506 108.543 27.0099 109.045 27.0099C109.157 27.0099 109.236 26.9619 109.268 26.8449C109.482 26.0744 106.018 25.7505 106.31 24.6344C106.362 24.437 106.501 24.3569 106.698 24.3571C107.545 24.3571 109.447 25.8551 109.846 25.8551C109.876 25.8551 109.898 25.8461 109.91 25.8272C110.11 25.5033 110 25.2771 108.593 24.421C107.185 23.5647 106.196 23.0496 106.758 22.4348C106.823 22.3638 106.915 22.3324 107.026 22.3324C107.881 22.3327 109.9 24.1792 109.9 24.1792C109.9 24.1792 110.445 24.7487 110.775 24.7487C110.851 24.7487 110.915 24.7187 110.959 24.6445C111.193 24.2485 108.788 22.4177 108.653 21.6624C108.561 21.1505 108.717 20.8913 109.006 20.8913Z" fill="#FF9D00"/>
<path d="M114.685 27.5781C115.427 26.485 115.375 25.6647 114.357 24.6426C113.339 23.6207 112.746 22.1258 112.746 22.1258C112.746 22.1258 112.525 21.2575 112.021 21.3374C111.517 21.4173 111.147 22.7148 112.203 23.5086C113.259 24.3021 111.993 24.8414 111.586 24.096C111.18 23.3507 110.071 21.4346 109.496 21.0682C108.921 20.7018 108.516 20.907 108.651 21.6624C108.787 22.4177 111.192 24.2485 110.958 24.6447C110.724 25.0407 109.899 24.1792 109.899 24.1792C109.899 24.1792 107.319 21.82 106.757 22.4348C106.195 23.0496 107.183 23.5647 108.591 24.421C109.999 25.2771 110.109 25.5033 109.909 25.8272C109.709 26.1511 106.601 23.5184 106.309 24.6344C106.017 25.7505 109.481 26.0744 109.267 26.8449C109.053 27.6157 106.827 25.3865 106.372 26.2551C105.916 27.1239 109.513 28.1446 109.542 28.1522C110.704 28.455 113.655 29.0966 114.685 27.5781Z" fill="#FFD21E"/>
<path d="M125.147 19.808C125.583 19.808 125.973 19.9881 126.245 20.3147C126.413 20.5171 126.589 20.8431 126.603 21.3314C126.786 21.2786 126.962 21.2491 127.127 21.2491C127.545 21.2491 127.922 21.41 128.189 21.7022C128.532 22.0773 128.684 22.5382 128.618 22.9995C128.586 23.2191 128.513 23.416 128.404 23.5983C128.634 23.7854 128.804 24.0459 128.886 24.3593C128.95 24.6049 129.015 25.1165 128.672 25.6436C128.694 25.6779 128.714 25.7137 128.734 25.7503C128.94 26.144 128.953 26.589 128.771 27.0034C128.495 27.6314 127.808 28.1262 126.475 28.6573C125.645 28.9877 124.887 29.199 124.88 29.2009C123.783 29.4866 122.792 29.6318 121.933 29.6318C120.355 29.6318 119.226 29.1462 118.575 28.1885C117.529 26.6464 117.679 25.236 119.033 23.8764C119.782 23.124 120.28 22.0147 120.384 21.7713C120.593 21.0503 121.146 20.2489 122.066 20.2489H122.066C122.143 20.2489 122.221 20.2552 122.298 20.2674C122.701 20.331 123.053 20.5639 123.305 20.9144C123.576 20.5753 123.84 20.3055 124.078 20.1533C124.438 19.9242 124.797 19.808 125.147 19.808ZM125.147 20.8913C125.009 20.8913 124.841 20.9501 124.656 21.0682C124.081 21.4346 122.972 23.3507 122.565 24.096C122.429 24.3457 122.197 24.4514 121.987 24.4514C121.571 24.4514 121.247 24.0362 121.949 23.5086C123.005 22.7148 122.635 21.4173 122.131 21.3374C122.108 21.3339 122.087 21.3322 122.066 21.3322C121.607 21.3322 121.405 22.1258 121.405 22.1258C121.405 22.1258 120.813 23.6207 119.795 24.6426C118.777 25.6647 118.724 26.485 119.466 27.5781C119.972 28.3234 120.941 28.5484 121.933 28.5484C122.963 28.5484 124.018 28.3063 124.609 28.1522C124.638 28.1446 128.235 27.1239 127.78 26.2551C127.703 26.1091 127.577 26.0506 127.418 26.0506C126.777 26.0506 125.61 27.0099 125.108 27.0099C124.996 27.0099 124.917 26.9619 124.885 26.8449C124.671 26.0744 128.135 25.7505 127.843 24.6344C127.791 24.437 127.652 24.3569 127.455 24.3571C126.608 24.3571 124.706 25.8551 124.307 25.8551C124.276 25.8551 124.255 25.8461 124.243 25.8272C124.043 25.5033 124.152 25.2771 125.56 24.421C126.968 23.5647 127.956 23.0496 127.394 22.4348C127.33 22.3638 127.238 22.3324 127.127 22.3324C126.272 22.3327 124.252 24.1792 124.252 24.1792C124.252 24.1792 123.707 24.7487 123.378 24.7487C123.302 24.7487 123.238 24.7187 123.194 24.6445C122.96 24.2485 125.365 22.4177 125.5 21.6624C125.592 21.1505 125.436 20.8913 125.147 20.8913Z" fill="#FF9D00"/>
<path d="M119.466 27.5781C118.724 26.485 118.777 25.6647 119.795 24.6426C120.812 23.6207 121.405 22.1258 121.405 22.1258C121.405 22.1258 121.626 21.2575 122.13 21.3374C122.634 21.4173 123.004 22.7148 121.949 23.5086C120.893 24.3021 122.159 24.8414 122.565 24.096C122.971 23.3507 124.081 21.4346 124.656 21.0682C125.231 20.7018 125.636 20.907 125.5 21.6624C125.364 22.4177 122.96 24.2485 123.194 24.6447C123.428 25.0407 124.252 24.1792 124.252 24.1792C124.252 24.1792 126.832 21.82 127.394 22.4348C127.956 23.0496 126.968 23.5647 125.56 24.421C124.152 25.2771 124.043 25.5033 124.243 25.8272C124.443 26.1511 127.55 23.5184 127.842 24.6344C128.134 25.7505 124.671 26.0744 124.884 26.8449C125.098 27.6157 127.324 25.3865 127.779 26.2551C128.235 27.1239 124.638 28.1446 124.609 28.1522C123.447 28.455 120.497 29.0966 119.466 27.5781Z" fill="#FFD21E"/>
</g>
<defs>
<filter id="filter0_d_619_440" x="95.8575" y="0.231559" width="42.5555" height="40.8433" filterUnits="userSpaceOnUse" color-interpolation-filters="sRGB">
<feFlood flood-opacity="0" result="BackgroundImageFix"/>
<feColorMatrix in="SourceAlpha" type="matrix" values="0 0 0 0 0 0 0 0 0 0 0 0 0 0 0 0 0 0 127 0" result="hardAlpha"/>
<feOffset dy="1.97301"/>
<feGaussianBlur stdDeviation="4.27485"/>
<feColorMatrix type="matrix" values="0 0 0 0 0 0 0 0 0 0 0 0 0 0 0 0 0 0 0.1 0"/>
<feBlend mode="normal" in2="BackgroundImageFix" result="effect1_dropShadow_619_440"/>
<feBlend mode="normal" in="SourceGraphic" in2="effect1_dropShadow_619_440" result="shape"/>
</filter>
<linearGradient id="paint0_linear_619_440" x1="0.805176" y1="20" x2="79.0427" y2="20" gradientUnits="userSpaceOnUse">
<stop stop-color="#F5F9FA"/>
<stop offset="1" stop-color="white"/>
</linearGradient>
</defs>
</svg>
