<svg width="138" height="42" viewBox="0 0 138 42" fill="none" xmlns="http://www.w3.org/2000/svg">
<path d="M18.8232 2.5H119.738C129.403 2.5 137.238 10.335 137.238 20C137.238 29.665 129.403 37.5 119.738 37.5H18.8232C9.15826 37.5 1.32324 29.665 1.32324 20C1.32324 10.335 9.15826 2.5 18.8232 2.5Z" fill="url(#paint0_linear_619_703)" stroke="#EFEFEF"/>
<path d="M21.1378 26.0721V14.4751H23.4608L25.5177 20.1495C25.6478 20.516 25.7719 20.8943 25.8901 21.2844C26.0202 21.6627 26.1443 22.041 26.2625 22.4192H26.3334C26.4635 22.041 26.5876 21.6627 26.7058 21.2844C26.824 20.8943 26.9422 20.516 27.0605 20.1495L29.0642 14.4751H31.4049V26.0721H29.5075V20.7701C29.5075 20.4037 29.5194 20.0076 29.543 19.5821C29.5785 19.1446 29.6139 18.7072 29.6494 18.2698C29.6967 17.8324 29.7381 17.4364 29.7735 17.0818H29.7026L28.7628 19.7771L26.8654 24.9905H25.6419L23.7268 19.7771L22.8047 17.0818H22.7337C22.7692 17.4364 22.8047 17.8324 22.8401 18.2698C22.8874 18.7072 22.9229 19.1446 22.9465 19.5821C22.982 20.0076 22.9997 20.4037 22.9997 20.7701V26.0721H21.1378ZM37.7375 26.2849C37.0164 26.2849 36.3425 26.1076 35.716 25.753C35.0895 25.3865 34.5811 24.8663 34.191 24.1925C33.8009 23.5068 33.6058 22.6852 33.6058 21.7277C33.6058 20.7583 33.8009 19.9367 34.191 19.2629C34.5811 18.5772 35.0895 18.0571 35.716 17.7024C36.3425 17.3359 37.0164 17.1527 37.7375 17.1527C38.4704 17.1527 39.1502 17.3359 39.7767 17.7024C40.4033 18.0571 40.9116 18.5772 41.3017 19.2629C41.6918 19.9367 41.8869 20.7583 41.8869 21.7277C41.8869 22.6852 41.6918 23.5068 41.3017 24.1925C40.9116 24.8663 40.4033 25.3865 39.7767 25.753C39.1502 26.1076 38.4704 26.2849 37.7375 26.2849ZM37.7375 24.6181C38.3759 24.6181 38.8783 24.3521 39.2448 23.8201C39.6112 23.2881 39.7945 22.5907 39.7945 21.7277C39.7945 20.8529 39.6112 20.1495 39.2448 19.6175C38.8783 19.0855 38.3759 18.8196 37.7375 18.8196C37.0991 18.8196 36.5967 19.0855 36.2302 19.6175C35.8756 20.1495 35.6983 20.8529 35.6983 21.7277C35.6983 22.5907 35.8756 23.2881 36.2302 23.8201C36.5967 24.3521 37.0991 24.6181 37.7375 24.6181ZM46.9554 26.2849C45.8678 26.2849 44.9989 25.883 44.3487 25.0791C43.6985 24.2753 43.3734 23.1581 43.3734 21.7277C43.3734 20.7819 43.5448 19.9663 43.8876 19.2806C44.2423 18.5949 44.7033 18.0689 45.2708 17.7024C45.8382 17.3359 46.4352 17.1527 47.0617 17.1527C47.5583 17.1527 47.9779 17.2414 48.3208 17.4187C48.6754 17.5842 49.0182 17.8147 49.3492 18.1103L49.2783 16.7094V13.553H51.3175V26.0721H49.633L49.4911 25.1323H49.4202C49.101 25.4515 48.7286 25.7234 48.303 25.948C47.8774 26.1726 47.4282 26.2849 46.9554 26.2849ZM47.4519 24.6003C48.1021 24.6003 48.7109 24.2753 49.2783 23.6251V19.5643C48.9828 19.2924 48.6872 19.1033 48.3917 18.9969C48.0961 18.8905 47.8006 18.8373 47.5051 18.8373C46.9494 18.8373 46.4707 19.0915 46.0687 19.5998C45.6786 20.0963 45.4836 20.7997 45.4836 21.71C45.4836 22.6439 45.655 23.3591 45.9978 23.8556C46.3406 24.3521 46.8253 24.6003 47.4519 24.6003ZM57.6383 26.2849C56.8345 26.2849 56.1074 26.1076 55.4573 25.753C54.8071 25.3865 54.2928 24.8663 53.9145 24.1925C53.5362 23.5068 53.3471 22.6852 53.3471 21.7277C53.3471 20.7819 53.5362 19.9663 53.9145 19.2806C54.3046 18.5949 54.8071 18.0689 55.4218 17.7024C56.0365 17.3359 56.6808 17.1527 57.3546 17.1527C58.1467 17.1527 58.8087 17.33 59.3407 17.6847C59.8726 18.0275 60.2746 18.5122 60.5465 19.1387C60.8184 19.7535 60.9543 20.4687 60.9543 21.2844C60.9543 21.71 60.9248 22.041 60.8657 22.2774H55.3331C55.4277 23.0458 55.7055 23.6428 56.1666 24.0684C56.6276 24.494 57.2069 24.7067 57.9043 24.7067C58.2826 24.7067 58.6314 24.6535 58.9506 24.5471C59.2816 24.4289 59.6067 24.2693 59.9258 24.0684L60.6174 25.3451C60.2036 25.617 59.7426 25.8416 59.2343 26.0189C58.7259 26.1963 58.194 26.2849 57.6383 26.2849ZM55.3154 20.8943H59.1811C59.1811 20.2204 59.0333 19.6944 58.7378 19.3161C58.4422 18.9259 57.9989 18.7309 57.4078 18.7309C56.8995 18.7309 56.4444 18.92 56.0424 19.2983C55.6523 19.6648 55.41 20.1968 55.3154 20.8943ZM64.888 26.2849C64.1669 26.2849 63.6527 26.0662 63.3453 25.6288C63.0498 25.1914 62.902 24.5944 62.902 23.8378V13.553H64.9412V23.9442C64.9412 24.1925 64.9885 24.3698 65.0831 24.4762C65.1777 24.5708 65.2781 24.6181 65.3845 24.6181C65.4318 24.6181 65.4732 24.6181 65.5087 24.6181C65.556 24.6063 65.621 24.5944 65.7037 24.5826L65.9697 26.1076C65.8515 26.1549 65.6978 26.1963 65.5087 26.2317C65.3313 26.2672 65.1245 26.2849 64.888 26.2849ZM74.7771 26.2849C72.6669 26.2849 70.7873 24.6358 70.7873 21.7809C70.7873 18.8905 72.6669 17.2414 74.7771 17.2414C76.8872 17.2414 78.7669 18.8905 78.7669 21.7809C78.7669 24.6358 76.8872 26.2849 74.7771 26.2849ZM74.7771 25.0791C76.2666 25.0791 77.2596 23.7492 77.2596 21.7809C77.2596 19.7948 76.2666 18.4472 74.7771 18.4472C73.3053 18.4472 72.2945 19.7948 72.2945 21.7809C72.2945 23.7492 73.3053 25.0791 74.7771 25.0791ZM81.0365 26.0721V17.4542H82.2423L82.3664 18.6954H82.4196C83.2353 17.8797 84.122 17.2414 85.31 17.2414C87.1188 17.2414 87.9345 18.4117 87.9345 20.6105V26.0721H86.4804V20.8056C86.4804 19.1919 85.9839 18.5004 84.849 18.5004C83.9624 18.5004 83.3595 18.9614 82.4906 19.8303V26.0721H81.0365Z" fill="#2C3236"/>
<g filter="url(#filter0_d_619_703)">
<path d="M119.17 25.7879C119.372 26.3728 119.323 26.9958 119.054 27.5374C118.86 27.9328 118.582 28.2388 118.242 28.5124C117.833 28.8374 117.323 29.1136 116.709 29.379C115.975 29.6932 115.08 29.9884 114.671 30.0967C113.622 30.3703 112.614 30.5436 111.592 30.5517C110.131 30.5653 108.873 30.2186 107.978 29.333C107.514 29.3899 107.045 29.4224 106.573 29.4224C106.126 29.4224 105.684 29.3953 105.244 29.3411C104.347 30.2213 103.093 30.5653 101.638 30.5517C100.616 30.5436 99.608 30.3703 98.5567 30.0967C98.1497 29.9884 97.2548 29.6932 96.5216 29.379C95.907 29.1136 95.3975 28.8374 94.9905 28.5124C94.6482 28.2388 94.3705 27.9328 94.1764 27.5374C93.9096 26.9958 93.8584 26.3728 94.0632 25.7879C93.8745 25.341 93.826 24.8291 93.9743 24.2631C94.0417 24.0058 94.1522 23.7675 94.2924 23.5562C94.2627 23.4452 94.2384 23.3315 94.2223 23.2069C94.1198 22.4648 94.3759 21.7877 94.8584 21.2623C95.0956 20.9996 95.3517 20.8182 95.6186 20.7017C95.4218 19.8622 95.3194 18.9982 95.3194 18.1153C95.3194 11.87 100.357 6.80826 106.573 6.80826C108.708 6.80826 110.706 7.40408 112.409 8.44406C112.716 8.63364 113.018 8.83676 113.307 9.05342C113.45 9.16175 113.592 9.27279 113.73 9.38925C113.87 9.50299 114.008 9.62216 114.14 9.74403C114.539 10.1096 114.913 10.5023 115.256 10.9221C115.372 11.0603 115.482 11.2038 115.59 11.35C115.808 11.6398 116.01 11.9404 116.196 12.2519C116.479 12.7177 116.727 13.2052 116.943 13.7117C117.086 14.0502 117.21 14.3968 117.32 14.7516C117.485 15.2825 117.612 15.8295 117.698 16.3928C117.725 16.5797 117.749 16.7693 117.768 16.9589C117.806 17.338 117.827 17.7226 117.827 18.1153C117.827 18.9874 117.725 19.8432 117.533 20.6692C117.83 20.7857 118.11 20.9753 118.372 21.2623C118.854 21.7877 119.11 22.4675 119.008 23.2096C118.992 23.3315 118.967 23.4452 118.938 23.5562C119.078 23.7675 119.188 24.0058 119.256 24.2631C119.404 24.8291 119.356 25.341 119.17 25.7879Z" fill="white"/>
<path d="M106.489 27.5266C111.662 27.5266 115.856 23.313 115.856 18.1153C115.856 12.9176 111.662 8.70407 106.489 8.70407C101.316 8.70407 97.1221 12.9176 97.1221 18.1153C97.1221 23.313 101.316 27.5266 106.489 27.5266Z" fill="#FFD21E"/>
<path d="M115.857 18.1154C115.857 12.9177 111.663 8.70409 106.49 8.70409C101.316 8.70409 97.1227 12.9177 97.1227 18.1154C97.1227 23.313 101.316 27.5266 106.49 27.5266C111.663 27.5266 115.857 23.313 115.857 18.1154ZM96.0444 18.1154C96.0444 12.3194 100.721 7.62078 106.49 7.62078C112.258 7.62078 116.935 12.3194 116.935 18.1154C116.935 23.9113 112.258 28.6099 106.49 28.6099C100.721 28.6099 96.0444 23.9113 96.0444 18.1154Z" fill="#FF9D00"/>
<path d="M109.533 15.5537C109.876 15.6755 110.013 16.3851 110.36 16.1997C111.017 15.8486 111.267 15.0287 110.917 14.3683C110.568 13.708 109.752 13.4573 109.094 13.8084C108.437 14.1595 108.188 14.9795 108.537 15.6398C108.702 15.9515 109.225 15.4447 109.533 15.5537Z" fill="#32343D"/>
<path d="M103.182 15.5537C102.838 15.6755 102.702 16.3851 102.355 16.1997C101.697 15.8486 101.448 15.0287 101.797 14.3683C102.147 13.708 102.963 13.4573 103.62 13.8084C104.277 14.1595 104.527 14.9795 104.177 15.6398C104.012 15.9515 103.489 15.4447 103.182 15.5537Z" fill="#32343D"/>
<path d="M106.422 22.0529C109.071 22.0529 109.926 19.6796 109.926 18.4609C109.926 17.8276 109.502 18.0269 108.823 18.3645C108.196 18.6765 107.351 19.1066 106.422 19.1066C104.486 19.1066 102.917 17.2422 102.917 18.4609C102.917 19.6796 103.772 22.0529 106.422 22.0529Z" fill="#32343D"/>
<mask id="mask0_619_703" style="mask-type:alpha" maskUnits="userSpaceOnUse" x="102" y="18" width="8" height="5">
<path d="M106.422 22.0529C109.071 22.0529 109.926 19.6796 109.926 18.4609C109.926 17.8276 109.502 18.0269 108.823 18.3645C108.196 18.6765 107.351 19.1066 106.422 19.1066C104.486 19.1066 102.917 17.2422 102.917 18.4609C102.917 19.6796 103.772 22.0529 106.422 22.0529Z" fill="white"/>
</mask>
<g mask="url(#mask0_619_703)">
<path d="M106.489 24.8182C107.78 24.8182 108.827 23.7666 108.827 22.4694C108.827 21.459 108.192 20.5976 107.301 20.266C107.268 20.2538 107.235 20.2423 107.202 20.2316C106.977 20.1594 106.738 20.9352 106.489 20.9352C106.257 20.9352 106.033 20.1545 105.821 20.2178C104.855 20.5066 104.151 21.4054 104.151 22.4694C104.151 23.7666 105.198 24.8182 106.489 24.8182Z" fill="#FF323D"/>
</g>
<g style="mix-blend-mode:multiply">
<path d="M112.823 16.8289C113.307 16.8289 113.699 16.4348 113.699 15.9487C113.699 15.4626 113.307 15.0685 112.823 15.0685C112.339 15.0685 111.947 15.4626 111.947 15.9487C111.947 16.4348 112.339 16.8289 112.823 16.8289Z" fill="#FFD21E"/>
</g>
<g style="mix-blend-mode:multiply">
<path d="M100.289 16.8289C100.772 16.8289 101.165 16.4348 101.165 15.9487C101.165 15.4626 100.772 15.0685 100.289 15.0685C99.8048 15.0685 99.4126 15.4626 99.4126 15.9487C99.4126 16.4348 99.8048 16.8289 100.289 16.8289Z" fill="#FFD21E"/>
</g>
<path d="M98.4863 19.808C98.0499 19.808 97.6598 19.9881 97.3878 20.3147C97.2196 20.5171 97.0439 20.8431 97.0296 21.3314C96.8466 21.2786 96.6705 21.2491 96.5061 21.2491C96.0883 21.2491 95.7109 21.41 95.4441 21.7022C95.1012 22.0773 94.9489 22.5382 95.0152 22.9995C95.0467 23.2191 95.1198 23.416 95.229 23.5983C94.9988 23.7854 94.8292 24.0459 94.7473 24.3593C94.6831 24.6049 94.6173 25.1165 94.9608 25.6436C94.9389 25.6779 94.9184 25.7137 94.8993 25.7503C94.6928 26.144 94.6796 26.589 94.8618 27.0034C95.1381 27.6314 95.8247 28.1262 97.1579 28.6573C97.9873 28.9877 98.7461 29.199 98.7529 29.2009C99.8494 29.4866 100.841 29.6318 101.7 29.6318C103.278 29.6318 104.407 29.1462 105.057 28.1885C106.104 26.6464 105.954 25.236 104.6 23.8764C103.851 23.124 103.353 22.0147 103.249 21.7713C103.04 21.0503 102.487 20.2489 101.567 20.2489H101.567C101.49 20.2489 101.411 20.2552 101.334 20.2674C100.932 20.331 100.58 20.5639 100.328 20.9144C100.057 20.5753 99.7931 20.3055 99.5545 20.1533C99.1949 19.9242 98.8356 19.808 98.4863 19.808ZM98.4863 20.8913C98.6237 20.8913 98.7917 20.9501 98.9769 21.0682C99.5518 21.4346 100.661 23.3507 101.068 24.096C101.204 24.3457 101.436 24.4514 101.646 24.4514C102.061 24.4514 102.386 24.0362 101.684 23.5086C100.628 22.7148 100.998 21.4173 101.502 21.3374C101.524 21.3339 101.546 21.3322 101.567 21.3322C102.026 21.3322 102.228 22.1258 102.228 22.1258C102.228 22.1258 102.82 23.6207 103.838 24.6426C104.856 25.6647 104.908 26.485 104.167 27.5781C103.661 28.3234 102.692 28.5484 101.7 28.5484C100.67 28.5484 99.6149 28.3063 99.0235 28.1522C98.9944 28.1446 95.3977 27.1239 95.8533 26.2551C95.9298 26.1091 96.056 26.0506 96.2147 26.0506C96.8563 26.0506 98.0232 27.0099 98.5248 27.0099C98.6369 27.0099 98.7159 26.9619 98.7483 26.8449C98.962 26.0744 95.4982 25.7505 95.7902 24.6344C95.8417 24.437 95.9813 24.3569 96.1775 24.3571C97.0253 24.3571 98.9273 25.8551 99.3259 25.8551C99.3564 25.8551 99.3782 25.8461 99.3901 25.8272C99.5898 25.5033 99.4804 25.2771 98.0725 24.421C96.6646 23.5647 95.6764 23.0496 96.2384 22.4348C96.3031 22.3638 96.3948 22.3324 96.5061 22.3324C97.3609 22.3327 99.3804 24.1792 99.3804 24.1792C99.3804 24.1792 99.9254 24.7487 100.255 24.7487C100.331 24.7487 100.395 24.7187 100.439 24.6445C100.673 24.2485 98.2682 22.4177 98.1326 21.6624C98.0407 21.1505 98.197 20.8913 98.4863 20.8913Z" fill="#FF9D00"/>
<path d="M104.165 27.5781C104.907 26.485 104.855 25.6647 103.837 24.6426C102.819 23.6207 102.226 22.1258 102.226 22.1258C102.226 22.1258 102.005 21.2575 101.501 21.3374C100.997 21.4173 100.627 22.7148 101.683 23.5086C102.739 24.3021 101.472 24.8414 101.066 24.096C100.66 23.3507 99.5508 21.4346 98.9756 21.0682C98.4007 20.7018 97.9958 20.907 98.1314 21.6624C98.267 22.4177 100.672 24.2485 100.438 24.6447C100.204 25.0407 99.3791 24.1792 99.3791 24.1792C99.3791 24.1792 96.799 21.82 96.2372 22.4348C95.6755 23.0496 96.6634 23.5647 98.0713 24.421C99.4794 25.2771 99.5886 25.5033 99.3888 25.8272C99.1888 26.1511 96.0809 23.5184 95.7889 24.6344C95.4973 25.7505 98.9608 26.0744 98.747 26.8449C98.5333 27.6157 96.3073 25.3865 95.852 26.2551C95.3965 27.1239 98.9931 28.1446 99.0222 28.1522C100.184 28.455 103.135 29.0966 104.165 27.5781Z" fill="#FFD21E"/>
<path d="M114.627 19.808C115.063 19.808 115.453 19.9881 115.725 20.3147C115.893 20.5171 116.069 20.8431 116.083 21.3314C116.266 21.2786 116.442 21.2491 116.607 21.2491C117.024 21.2491 117.402 21.41 117.669 21.7022C118.012 22.0773 118.164 22.5382 118.098 22.9995C118.066 23.2191 117.993 23.416 117.884 23.5983C118.114 23.7854 118.284 24.0459 118.366 24.3593C118.43 24.6049 118.495 25.1165 118.152 25.6436C118.174 25.6779 118.194 25.7137 118.213 25.7503C118.42 26.144 118.433 26.589 118.251 27.0034C117.975 27.6314 117.288 28.1262 115.955 28.6573C115.125 28.9877 114.367 29.199 114.36 29.2009C113.263 29.4866 112.272 29.6318 111.413 29.6318C109.835 29.6318 108.705 29.1462 108.055 28.1885C107.009 26.6464 107.159 25.236 108.512 23.8764C109.262 23.124 109.76 22.0147 109.864 21.7713C110.073 21.0503 110.626 20.2489 111.546 20.2489H111.546C111.623 20.2489 111.701 20.2552 111.778 20.2674C112.181 20.331 112.533 20.5639 112.785 20.9144C113.056 20.5753 113.32 20.3055 113.558 20.1533C113.918 19.9242 114.277 19.808 114.627 19.808ZM114.627 20.8913C114.489 20.8913 114.321 20.9501 114.136 21.0682C113.561 21.4346 112.451 23.3507 112.045 24.096C111.909 24.3457 111.677 24.4514 111.467 24.4514C111.051 24.4514 110.727 24.0362 111.429 23.5086C112.485 22.7148 112.115 21.4173 111.61 21.3374C111.588 21.3339 111.567 21.3322 111.546 21.3322C111.087 21.3322 110.885 22.1258 110.885 22.1258C110.885 22.1258 110.293 23.6207 109.275 24.6426C108.257 25.6647 108.204 26.485 108.946 27.5781C109.452 28.3234 110.421 28.5484 111.413 28.5484C112.443 28.5484 113.498 28.3063 114.089 28.1522C114.118 28.1446 117.715 27.1239 117.26 26.2551C117.183 26.1091 117.057 26.0506 116.898 26.0506C116.257 26.0506 115.09 27.0099 114.588 27.0099C114.476 27.0099 114.397 26.9619 114.365 26.8449C114.151 26.0744 117.615 25.7505 117.323 24.6344C117.271 24.437 117.132 24.3569 116.935 24.3571C116.088 24.3571 114.186 25.8551 113.787 25.8551C113.756 25.8551 113.735 25.8461 113.723 25.8272C113.523 25.5033 113.632 25.2771 115.04 24.421C116.448 23.5647 117.436 23.0496 116.874 22.4348C116.81 22.3638 116.718 22.3324 116.607 22.3324C115.752 22.3327 113.732 24.1792 113.732 24.1792C113.732 24.1792 113.187 24.7487 112.858 24.7487C112.782 24.7487 112.718 24.7187 112.674 24.6445C112.44 24.2485 114.845 22.4177 114.98 21.6624C115.072 21.1505 114.916 20.8913 114.627 20.8913Z" fill="#FF9D00"/>
<path d="M108.946 27.5781C108.204 26.485 108.257 25.6647 109.275 24.6426C110.292 23.6207 110.885 22.1258 110.885 22.1258C110.885 22.1258 111.106 21.2575 111.61 21.3374C112.114 21.4173 112.484 22.7148 111.429 23.5086C110.373 24.3021 111.639 24.8414 112.045 24.096C112.451 23.3507 113.56 21.4346 114.136 21.0682C114.711 20.7018 115.116 20.907 114.98 21.6624C114.844 22.4177 112.44 24.2485 112.674 24.6447C112.908 25.0407 113.732 24.1792 113.732 24.1792C113.732 24.1792 116.312 21.82 116.874 22.4348C117.436 23.0496 116.448 23.5647 115.04 24.421C113.632 25.2771 113.523 25.5033 113.722 25.8272C113.922 26.1511 117.03 23.5184 117.322 24.6344C117.614 25.7505 114.151 26.0744 114.364 26.8449C114.578 27.6157 116.804 25.3865 117.259 26.2551C117.715 27.1239 114.118 28.1446 114.089 28.1522C112.927 28.455 109.977 29.0966 108.946 27.5781Z" fill="#FFD21E"/>
</g>
<defs>
<filter id="filter0_d_619_703" x="85.3375" y="0.231559" width="42.5555" height="40.8433" filterUnits="userSpaceOnUse" color-interpolation-filters="sRGB">
<feFlood flood-opacity="0" result="BackgroundImageFix"/>
<feColorMatrix in="SourceAlpha" type="matrix" values="0 0 0 0 0 0 0 0 0 0 0 0 0 0 0 0 0 0 127 0" result="hardAlpha"/>
<feOffset dy="1.97301"/>
<feGaussianBlur stdDeviation="4.27485"/>
<feColorMatrix type="matrix" values="0 0 0 0 0 0 0 0 0 0 0 0 0 0 0 0 0 0 0.1 0"/>
<feBlend mode="normal" in2="BackgroundImageFix" result="effect1_dropShadow_619_703"/>
<feBlend mode="normal" in="SourceGraphic" in2="effect1_dropShadow_619_703" result="shape"/>
</filter>
<linearGradient id="paint0_linear_619_703" x1="0.823242" y1="20" x2="79.0608" y2="20" gradientUnits="userSpaceOnUse">
<stop stop-color="#F5F9FA"/>
<stop offset="1" stop-color="white"/>
</linearGradient>
</defs>
</svg>
