<svg width="114" height="27" viewBox="0 0 114 27" fill="none" xmlns="http://www.w3.org/2000/svg">
<path d="M1.32324 13C1.32324 6.64873 6.47197 1.5 12.8232 1.5H101.454C107.806 1.5 112.954 6.64873 112.954 13C112.954 19.3513 107.806 24.5 101.454 24.5H12.8232C6.47197 24.5 1.32324 19.3513 1.32324 13Z" fill="url(#paint0_linear_619_704)" stroke="#EFEFEF"/>
<g filter="url(#filter0_d_619_704)">
<path d="M98.8294 16.8554C98.9576 17.2266 98.9269 17.6217 98.7558 17.9654C98.6327 18.2162 98.4566 18.4104 98.2411 18.5839C97.9812 18.7901 97.658 18.9653 97.2681 19.1337C96.8029 19.333 96.2352 19.5203 95.9753 19.589C95.31 19.7625 94.6705 19.8725 94.0223 19.8777C93.0955 19.8863 92.2969 19.6663 91.7291 19.1045C91.435 19.1406 91.1374 19.1612 90.8382 19.1612C90.5543 19.1612 90.2739 19.144 89.9951 19.1096C89.4257 19.668 88.6305 19.8863 87.707 19.8777C87.0589 19.8725 86.4193 19.7625 85.7524 19.589C85.4942 19.5203 84.9264 19.333 84.4613 19.1337C84.0714 18.9653 83.7482 18.7901 83.49 18.5839C83.2728 18.4104 83.0967 18.2162 82.9735 17.9654C82.8042 17.6217 82.7717 17.2266 82.9017 16.8554C82.782 16.5719 82.7512 16.2472 82.8453 15.8881C82.888 15.7249 82.9581 15.5737 83.0471 15.4397C83.0283 15.3692 83.0129 15.2971 83.0026 15.218C82.9376 14.7473 83.1001 14.3177 83.4062 13.9844C83.5567 13.8177 83.7191 13.7026 83.8884 13.6287C83.7636 13.0961 83.6986 12.548 83.6986 11.9879C83.6986 8.02583 86.8947 4.8146 90.8382 4.8146C92.1926 4.8146 93.4597 5.19259 94.5405 5.85236C94.7355 5.97263 94.927 6.1015 95.11 6.23895C95.2006 6.30767 95.2912 6.37812 95.3784 6.452C95.4674 6.52416 95.5546 6.59976 95.6384 6.67708C95.8915 6.90903 96.1292 7.15816 96.3463 7.42448C96.4199 7.5121 96.49 7.60316 96.5584 7.69594C96.6969 7.87979 96.8252 8.0705 96.9432 8.26809C97.1227 8.56361 97.28 8.87288 97.4169 9.19418C97.5075 9.40894 97.5862 9.62887 97.6563 9.85395C97.7606 10.1907 97.841 10.5378 97.8957 10.8951C97.9128 11.0137 97.9282 11.134 97.9401 11.2542C97.9641 11.4948 97.9778 11.7388 97.9778 11.9879C97.9778 12.5411 97.9128 13.0841 97.7914 13.6081C97.9795 13.682 98.1573 13.8023 98.3232 13.9844C98.6293 14.3177 98.7918 14.749 98.7268 15.2197C98.7165 15.2971 98.7011 15.3692 98.6823 15.4397C98.7712 15.5737 98.8413 15.7249 98.8841 15.8881C98.9782 16.2472 98.9474 16.5719 98.8294 16.8554Z" fill="white"/>
<path d="M90.7848 17.9585C94.0668 17.9585 96.7273 15.2854 96.7273 11.9879C96.7273 8.69044 94.0668 6.01732 90.7848 6.01732C87.5028 6.01732 84.8423 8.69044 84.8423 11.9879C84.8423 15.2854 87.5028 17.9585 90.7848 17.9585Z" fill="#FFD21E"/>
<path d="M96.7273 11.9879C96.7273 8.69046 94.0667 6.01734 90.7848 6.01734C87.5028 6.01734 84.8422 8.69046 84.8422 11.9879C84.8422 15.2854 87.5028 17.9585 90.7848 17.9585C94.0667 17.9585 96.7273 15.2854 96.7273 11.9879ZM84.1582 11.9879C84.1582 8.3109 87.125 5.33007 90.7848 5.33007C94.4445 5.33007 97.4113 8.3109 97.4113 11.9879C97.4113 15.665 94.4445 18.6458 90.7848 18.6458C87.125 18.6458 84.1582 15.665 84.1582 11.9879Z" fill="#FF9D00"/>
<path d="M92.7156 10.3628C92.9335 10.4401 93.0203 10.8902 93.2404 10.7726C93.6574 10.5499 93.8156 10.0297 93.5939 9.61078C93.3722 9.19186 92.8545 9.03283 92.4376 9.25557C92.0206 9.47832 91.8623 9.99849 92.084 10.4174C92.1887 10.6151 92.5208 10.2936 92.7156 10.3628Z" fill="#32343D"/>
<path d="M88.6867 10.3628C88.4688 10.4401 88.3821 10.8902 88.1619 10.7726C87.745 10.5499 87.5867 10.0297 87.8084 9.61078C88.0301 9.19186 88.5478 9.03283 88.9648 9.25557C89.3817 9.47832 89.54 9.99849 89.3183 10.4174C89.2137 10.6151 88.8816 10.2936 88.6867 10.3628Z" fill="#32343D"/>
<path d="M90.7421 14.4859C92.4229 14.4859 92.9652 12.9803 92.9652 12.2072C92.9652 11.8053 92.6964 11.9318 92.2658 12.146C91.8679 12.3439 91.3318 12.6168 90.7421 12.6168C89.5144 12.6168 88.519 11.434 88.519 12.2072C88.519 12.9803 89.0614 14.4859 90.7421 14.4859Z" fill="#32343D"/>
<mask id="mask0_619_704" style="mask-type:alpha" maskUnits="userSpaceOnUse" x="88" y="11" width="5" height="4">
<path d="M90.7421 14.4859C92.4229 14.4859 92.9652 12.9803 92.9652 12.2072C92.9652 11.8053 92.6964 11.9318 92.2658 12.146C91.8679 12.3439 91.3318 12.6168 90.7421 12.6168C89.5144 12.6168 88.519 11.434 88.519 12.2072C88.519 12.9803 89.0614 14.4859 90.7421 14.4859Z" fill="white"/>
</mask>
<g mask="url(#mask0_619_704)">
<path d="M90.7844 16.2403C91.6035 16.2403 92.2675 15.5731 92.2675 14.7502C92.2675 14.1091 91.8647 13.5627 91.2995 13.3523C91.2787 13.3446 91.2577 13.3373 91.2364 13.3305C91.0939 13.2847 90.942 13.7769 90.7844 13.7769C90.6371 13.7769 90.4948 13.2816 90.3605 13.3218C89.748 13.505 89.3013 14.0752 89.3013 14.7502C89.3013 15.5731 89.9653 16.2403 90.7844 16.2403Z" fill="#FF323D"/>
</g>
<g style="mix-blend-mode:multiply">
<path d="M94.8033 11.1718C95.1103 11.1718 95.3591 10.9218 95.3591 10.6134C95.3591 10.305 95.1103 10.055 94.8033 10.055C94.4964 10.055 94.2476 10.305 94.2476 10.6134C94.2476 10.9218 94.4964 11.1718 94.8033 11.1718Z" fill="#FFD21E"/>
</g>
<g style="mix-blend-mode:multiply">
<path d="M86.8512 11.1718C87.1581 11.1718 87.407 10.9218 87.407 10.6134C87.407 10.305 87.1581 10.055 86.8512 10.055C86.5442 10.055 86.2954 10.305 86.2954 10.6134C86.2954 10.9218 86.5442 11.1718 86.8512 11.1718Z" fill="#FFD21E"/>
</g>
<path d="M85.7074 13.0618C85.4306 13.0618 85.1831 13.176 85.0106 13.3832C84.9039 13.5116 84.7924 13.7185 84.7833 14.0282C84.6672 13.9947 84.5555 13.976 84.4512 13.976C84.1862 13.976 83.9467 14.0781 83.7774 14.2634C83.5599 14.5014 83.4633 14.7938 83.5054 15.0864C83.5254 15.2258 83.5717 15.3507 83.641 15.4663C83.4949 15.5851 83.3874 15.7503 83.3354 15.9491C83.2947 16.105 83.253 16.4295 83.4708 16.7639C83.457 16.7857 83.444 16.8084 83.4318 16.8316C83.3008 17.0814 83.2925 17.3637 83.4081 17.6266C83.5833 18.025 84.0189 18.3389 84.8647 18.6758C85.3909 18.8855 85.8723 19.0195 85.8766 19.0207C86.5722 19.2019 87.2014 19.294 87.746 19.294C88.7471 19.294 89.4638 18.986 89.8763 18.3784C90.5401 17.4001 90.4452 16.5053 89.5862 15.6428C89.1108 15.1655 88.7948 14.4617 88.729 14.3073C88.5963 13.8499 88.2454 13.3415 87.6621 13.3415H87.6619C87.6128 13.3415 87.5632 13.3454 87.5143 13.3532C87.2588 13.3935 87.0355 13.5413 86.8759 13.7636C86.7037 13.5485 86.5365 13.3774 86.3851 13.2808C86.157 13.1355 85.9291 13.0618 85.7074 13.0618ZM85.7074 13.749C85.7947 13.749 85.9012 13.7863 86.0187 13.8612C86.3834 14.0937 87.0873 15.3093 87.345 15.7821C87.4314 15.9405 87.5789 16.0075 87.7118 16.0075C87.9755 16.0075 88.1814 15.7442 87.7359 15.4095C87.0661 14.9059 87.3011 14.0827 87.6208 14.032C87.6349 14.0298 87.6487 14.0287 87.6621 14.0287C87.9528 14.0287 88.081 14.5322 88.081 14.5322C88.081 14.5322 88.4569 15.4806 89.1026 16.1288C89.7484 16.7773 89.7817 17.2977 89.3111 17.9912C88.9901 18.464 88.3757 18.6068 87.746 18.6068C87.0929 18.6068 86.4234 18.4532 86.0483 18.3554C86.0298 18.3506 83.748 17.703 84.037 17.1518C84.0856 17.0592 84.1656 17.0221 84.2664 17.0221C84.6734 17.0221 85.4136 17.6307 85.7319 17.6307C85.803 17.6307 85.8531 17.6003 85.8737 17.5261C86.0093 17.0372 83.8118 16.8317 83.997 16.1237C84.0297 15.9984 84.1183 15.9476 84.2428 15.9478C84.7806 15.9478 85.9872 16.8981 86.2401 16.8981C86.2594 16.8981 86.2733 16.8924 86.2808 16.8804C86.4075 16.6749 86.3381 16.5314 85.4449 15.9883C84.5518 15.445 83.9249 15.1182 84.2814 14.7282C84.3224 14.6832 84.3806 14.6633 84.4512 14.6633C84.9935 14.6634 86.2747 15.8349 86.2747 15.8349C86.2747 15.8349 86.6204 16.1962 86.8296 16.1962C86.8776 16.1962 86.9185 16.1771 86.9462 16.1301C87.0945 15.8789 85.5691 14.7174 85.4831 14.2382C85.4248 13.9135 85.5239 13.749 85.7074 13.749Z" fill="#FF9D00"/>
<path d="M89.311 17.9911C89.7816 17.2977 89.7482 16.7773 89.1025 16.1288C88.4568 15.4806 88.0809 14.5322 88.0809 14.5322C88.0809 14.5322 87.9405 13.9813 87.6207 14.032C87.301 14.0827 87.0662 14.9059 87.736 15.4094C88.4058 15.9129 87.6026 16.2549 87.3449 15.7821C87.0872 15.3093 86.3835 14.0937 86.0186 13.8612C85.6538 13.6287 85.397 13.759 85.483 14.2382C85.569 14.7174 87.0945 15.8788 86.9461 16.1302C86.7977 16.3814 86.2746 15.8349 86.2746 15.8349C86.2746 15.8349 84.6377 14.3382 84.2813 14.7282C83.9249 15.1182 84.5517 15.445 85.4448 15.9883C86.3382 16.5314 86.4074 16.6749 86.2807 16.8804C86.1538 17.0858 84.1821 15.4156 83.9969 16.1237C83.8119 16.8317 86.0092 17.0372 85.8736 17.526C85.7379 18.015 84.3258 16.6008 84.0369 17.1518C83.7479 17.703 86.0297 18.3506 86.0482 18.3554C86.7852 18.5475 88.657 18.9545 89.311 17.9911Z" fill="#FFD21E"/>
<path d="M95.9473 13.0618C96.2242 13.0618 96.4717 13.176 96.6442 13.3832C96.7509 13.5116 96.8624 13.7185 96.8715 14.0282C96.9876 13.9947 97.0993 13.976 97.2036 13.976C97.4686 13.976 97.708 14.0781 97.8773 14.2634C98.0949 14.5014 98.1915 14.7938 98.1494 15.0864C98.1294 15.2258 98.0831 15.3507 98.0138 15.4663C98.1598 15.5851 98.2674 15.7503 98.3194 15.9491C98.3601 16.105 98.4018 16.4295 98.184 16.7639C98.1978 16.7857 98.2108 16.8084 98.2229 16.8316C98.3539 17.0814 98.3623 17.3637 98.2467 17.6266C98.0714 18.025 97.6359 18.3389 96.7901 18.6758C96.2639 18.8855 95.7825 19.0195 95.7782 19.0207C95.0826 19.2019 94.4534 19.294 93.9088 19.294C92.9077 19.294 92.191 18.986 91.7785 18.3784C91.1147 17.4001 91.2096 16.5053 92.0686 15.6428C92.544 15.1655 92.86 14.4617 92.9258 14.3073C93.0585 13.8499 93.4094 13.3415 93.9927 13.3415H93.9929C94.042 13.3415 94.0916 13.3454 94.1405 13.3532C94.396 13.3935 94.6193 13.5413 94.7789 13.7636C94.9511 13.5485 95.1183 13.3774 95.2696 13.2808C95.4978 13.1355 95.7257 13.0618 95.9473 13.0618ZM95.9473 13.749C95.8601 13.749 95.7536 13.7863 95.6361 13.8612C95.2714 14.0937 94.5675 15.3093 94.3098 15.7821C94.2234 15.9405 94.0758 16.0075 93.943 16.0075C93.6793 16.0075 93.4734 15.7442 93.9189 15.4095C94.5887 14.9059 94.3537 14.0827 94.0339 14.032C94.0199 14.0298 94.0061 14.0287 93.9927 14.0287C93.702 14.0287 93.5738 14.5322 93.5738 14.5322C93.5738 14.5322 93.1979 15.4806 92.5522 16.1288C91.9064 16.7773 91.8731 17.2977 92.3437 17.9912C92.6647 18.464 93.2791 18.6068 93.9088 18.6068C94.5618 18.6068 95.2313 18.4532 95.6065 18.3554C95.625 18.3506 97.9068 17.703 97.6178 17.1518C97.5692 17.0592 97.4892 17.0221 97.3884 17.0221C96.9814 17.0221 96.2411 17.6307 95.9229 17.6307C95.8518 17.6307 95.8017 17.6003 95.7811 17.5261C95.6455 17.0372 97.843 16.8317 97.6578 16.1237C97.6251 15.9984 97.5365 15.9476 97.412 15.9478C96.8742 15.9478 95.6676 16.8981 95.4147 16.8981C95.3953 16.8981 95.3815 16.8924 95.374 16.8804C95.2472 16.6749 95.3167 16.5314 96.2098 15.9883C97.103 15.445 97.7299 15.1182 97.3734 14.7282C97.3323 14.6832 97.2742 14.6633 97.2036 14.6633C96.6613 14.6634 95.3801 15.8349 95.3801 15.8349C95.3801 15.8349 95.0343 16.1962 94.8252 16.1962C94.7771 16.1962 94.7363 16.1771 94.7086 16.1301C94.5603 15.8789 96.0857 14.7174 96.1717 14.2382C96.23 13.9135 96.1308 13.749 95.9473 13.749Z" fill="#FF9D00"/>
<path d="M92.3433 17.9911C91.8727 17.2977 91.9061 16.7773 92.5518 16.1288C93.1975 15.4806 93.5734 14.5322 93.5734 14.5322C93.5734 14.5322 93.7138 13.9813 94.0336 14.032C94.3533 14.0827 94.5881 14.9059 93.9183 15.4094C93.2485 15.9129 94.0517 16.2549 94.3094 15.7821C94.5671 15.3093 95.2708 14.0937 95.6357 13.8612C96.0005 13.6287 96.2573 13.759 96.1713 14.2382C96.0853 14.7174 94.5597 15.8788 94.7082 16.1302C94.8566 16.3814 95.3797 15.8349 95.3797 15.8349C95.3797 15.8349 97.0166 14.3382 97.373 14.7282C97.7294 15.1182 97.1026 15.445 96.2095 15.9883C95.3161 16.5314 95.2469 16.6749 95.3736 16.8804C95.5005 17.0858 97.4722 15.4156 97.6574 16.1237C97.8424 16.8317 95.6451 17.0372 95.7807 17.526C95.9164 18.015 97.3285 16.6008 97.6174 17.1518C97.9064 17.703 95.6246 18.3506 95.6061 18.3554C94.8691 18.5475 92.9973 18.9545 92.3433 17.9911Z" fill="#FFD21E"/>
</g>
<path d="M18.2538 17.5674V7.26846H20.3168L22.1435 12.3077C22.259 12.6332 22.3692 12.9691 22.4742 13.3156C22.5897 13.6515 22.6999 13.9875 22.8049 14.3234H22.8679C22.9834 13.9875 23.0936 13.6515 23.1986 13.3156C23.3036 12.9691 23.4086 12.6332 23.5135 12.3077L25.293 7.26846H27.3717V17.5674H25.6867V12.8589C25.6867 12.5334 25.6972 12.1817 25.7182 11.8038C25.7497 11.4153 25.7812 11.0269 25.8127 10.6385C25.8547 10.25 25.8914 9.89831 25.9229 9.58336H25.8599L25.0253 11.977L23.3403 16.6068H22.2537L20.553 11.977L19.7341 9.58336H19.6711C19.7026 9.89831 19.7341 10.25 19.7656 10.6385C19.8076 11.0269 19.8391 11.4153 19.8601 11.8038C19.8916 12.1817 19.9073 12.5334 19.9073 12.8589V17.5674H18.2538ZM32.9955 17.7564C32.3551 17.7564 31.7566 17.5989 31.2002 17.284C30.6438 16.9585 30.1924 16.4966 29.8459 15.8982C29.4995 15.2893 29.3263 14.5596 29.3263 13.7092C29.3263 12.8484 29.4995 12.1187 29.8459 11.5203C30.1924 10.9114 30.6438 10.4495 31.2002 10.1345C31.7566 9.80908 32.3551 9.64635 32.9955 9.64635C33.6464 9.64635 34.25 9.80908 34.8064 10.1345C35.3629 10.4495 35.8143 10.9114 36.1607 11.5203C36.5072 12.1187 36.6804 12.8484 36.6804 13.7092C36.6804 14.5596 36.5072 15.2893 36.1607 15.8982C35.8143 16.4966 35.3629 16.9585 34.8064 17.284C34.25 17.5989 33.6464 17.7564 32.9955 17.7564ZM32.9955 16.2761C33.5624 16.2761 34.0086 16.0399 34.334 15.5675C34.6595 15.095 34.8222 14.4756 34.8222 13.7092C34.8222 12.9324 34.6595 12.3077 34.334 11.8353C34.0086 11.3628 33.5624 11.1266 32.9955 11.1266C32.4285 11.1266 31.9824 11.3628 31.6569 11.8353C31.342 12.3077 31.1845 12.9324 31.1845 13.7092C31.1845 14.4756 31.342 15.095 31.6569 15.5675C31.9824 16.0399 32.4285 16.2761 32.9955 16.2761ZM41.1815 17.7564C40.2157 17.7564 39.444 17.3994 38.8666 16.6855C38.2892 15.9717 38.0005 14.9796 38.0005 13.7092C38.0005 12.8694 38.1527 12.145 38.4572 11.5361C38.7721 10.9272 39.1816 10.46 39.6855 10.1345C40.1894 9.80908 40.7196 9.64635 41.276 9.64635C41.7169 9.64635 42.0896 9.72509 42.3941 9.88257C42.709 10.0295 43.0135 10.2343 43.3075 10.4967L43.2445 9.25266V6.44958H45.0554V17.5674H43.5594L43.4334 16.7328H43.3704C43.087 17.0162 42.7563 17.2577 42.3783 17.4572C42.0004 17.6566 41.6015 17.7564 41.1815 17.7564ZM41.6225 16.2604C42.1999 16.2604 42.7405 15.9717 43.2445 15.3942V11.788C42.982 11.5466 42.7195 11.3786 42.4571 11.2841C42.1946 11.1896 41.9322 11.1424 41.6697 11.1424C41.1763 11.1424 40.7511 11.3681 40.3941 11.8195C40.0477 12.2605 39.8745 12.8851 39.8745 13.6935C39.8745 14.5229 40.0267 15.158 40.3312 15.599C40.6356 16.0399 41.066 16.2604 41.6225 16.2604ZM50.6687 17.7564C49.9548 17.7564 49.3092 17.5989 48.7318 17.284C48.1544 16.9585 47.6977 16.4966 47.3617 15.8982C47.0258 15.2893 46.8578 14.5596 46.8578 13.7092C46.8578 12.8694 47.0258 12.145 47.3617 11.5361C47.7082 10.9272 48.1544 10.46 48.7003 10.1345C49.2462 9.80908 49.8184 9.64635 50.4168 9.64635C51.1202 9.64635 51.7081 9.80383 52.1805 10.1188C52.6529 10.4232 53.0099 10.8537 53.2514 11.4101C53.4928 11.956 53.6135 12.5912 53.6135 13.3156C53.6135 13.6935 53.5873 13.9875 53.5348 14.1974H48.6215C48.7055 14.8798 48.9522 15.41 49.3617 15.7879C49.7711 16.1659 50.2855 16.3548 50.905 16.3548C51.2409 16.3548 51.5506 16.3076 51.8341 16.2131C52.128 16.1081 52.4167 15.9664 52.7002 15.7879L53.3143 16.9218C52.9469 17.1632 52.5375 17.3627 52.086 17.5202C51.6346 17.6776 51.1622 17.7564 50.6687 17.7564ZM48.6058 12.9691H52.0388C52.0388 12.3707 51.9076 11.9035 51.6451 11.5676C51.3826 11.2211 50.9889 11.0479 50.464 11.0479C50.0126 11.0479 49.6084 11.2159 49.2515 11.5518C48.905 11.8773 48.6898 12.3497 48.6058 12.9691ZM57.1069 17.7564C56.4665 17.7564 56.0099 17.5622 55.7369 17.1737C55.4744 16.7853 55.3432 16.2551 55.3432 15.5832V6.44958H57.1542V15.6777C57.1542 15.8982 57.1962 16.0556 57.2802 16.1501C57.3642 16.2341 57.4534 16.2761 57.5479 16.2761C57.5899 16.2761 57.6266 16.2761 57.6581 16.2761C57.7001 16.2656 57.7578 16.2551 57.8313 16.2446L58.0675 17.5989C57.9626 17.6409 57.8261 17.6776 57.6581 17.7091C57.5006 17.7406 57.3169 17.7564 57.1069 17.7564ZM65.8891 17.7564C64.0151 17.7564 62.3459 16.2919 62.3459 13.7565C62.3459 11.1896 64.0151 9.72509 65.8891 9.72509C67.763 9.72509 69.4323 11.1896 69.4323 13.7565C69.4323 16.2919 67.763 17.7564 65.8891 17.7564ZM65.8891 16.6855C67.2119 16.6855 68.0937 15.5045 68.0937 13.7565C68.0937 11.9928 67.2119 10.7959 65.8891 10.7959C64.582 10.7959 63.6844 11.9928 63.6844 13.7565C63.6844 15.5045 64.582 16.6855 65.8891 16.6855ZM71.4479 17.5674V9.91406H72.5187L72.6289 11.0164H72.6762C73.4006 10.292 74.188 9.72509 75.243 9.72509C76.8493 9.72509 77.5737 10.7644 77.5737 12.7171V17.5674H76.2824V12.8904C76.2824 11.4573 75.8415 10.8432 74.8336 10.8432C74.0462 10.8432 73.5108 11.2526 72.7392 12.0242V17.5674H71.4479Z" fill="#2C3236"/>
<defs>
<filter id="filter0_d_619_704" x="77.366" y="0.642281" width="26.9974" height="25.9113" filterUnits="userSpaceOnUse" color-interpolation-filters="sRGB">
<feFlood flood-opacity="0" result="BackgroundImageFix"/>
<feColorMatrix in="SourceAlpha" type="matrix" values="0 0 0 0 0 0 0 0 0 0 0 0 0 0 0 0 0 0 127 0" result="hardAlpha"/>
<feOffset dy="1.2517"/>
<feGaussianBlur stdDeviation="2.71201"/>
<feColorMatrix type="matrix" values="0 0 0 0 0 0 0 0 0 0 0 0 0 0 0 0 0 0 0.1 0"/>
<feBlend mode="normal" in2="BackgroundImageFix" result="effect1_dropShadow_619_704"/>
<feBlend mode="normal" in="SourceGraphic" in2="effect1_dropShadow_619_704" result="shape"/>
</filter>
<linearGradient id="paint0_linear_619_704" x1="0.823242" y1="13" x2="63.7978" y2="13" gradientUnits="userSpaceOnUse">
<stop stop-color="#F5F9FA"/>
<stop offset="1" stop-color="white"/>
</linearGradient>
</defs>
</svg>
